<svg width="24" height="24" viewBox="0 0 24 24" fill="none" xmlns="http://www.w3.org/2000/svg">
<path opacity="0.3" d="M11.3804 7.35085C11.9018 6.82849 12.5664 6.47254 13.2901 6.32804C14.0139 6.18354 14.7642 6.25699 15.4462 6.5391C16.1282 6.82121 16.7111 7.29928 17.1213 7.91283C17.5315 8.52638 17.7504 9.24782 17.7504 9.98585C17.7504 10.7239 17.5315 11.4453 17.1213 12.0589C16.7111 12.6724 16.1282 13.1505 15.4462 13.4326C14.7642 13.7147 14.0139 13.7882 13.2901 13.6437C12.5664 13.4992 11.9018 13.1432 11.3804 12.6208C10.6848 11.9203 10.2945 10.9731 10.2945 9.98585C10.2945 8.99862 10.6848 8.05144 11.3804 7.35085ZM8.38039 4.35085C7.25822 5.46833 6.49297 6.89373 6.18157 8.44649C5.87017 9.99925 6.02664 11.6095 6.63116 13.0733C7.23567 14.537 8.26103 15.7884 9.57735 16.669C10.8937 17.5495 12.4417 18.0195 14.0254 18.0195C15.6091 18.0195 17.1571 17.5495 18.4734 16.669C19.7898 15.7884 20.8151 14.537 21.4196 13.0733C22.0241 11.6095 22.1806 9.99925 21.8692 8.44649C21.5578 6.89373 20.7926 5.46833 19.6704 4.35085C18.1711 2.85779 16.1413 2.01953 14.0254 2.01953C11.9095 2.01953 9.87971 2.85779 8.38039 4.35085Z" fill="#F77407"/>
<path d="M11.3103 17.4909C10.5787 17.7755 9.77612 17.8226 9.01621 17.6257C8.2563 17.4288 7.57762 16.9977 7.07632 16.3936C6.57502 15.7895 6.27652 15.043 6.22311 14.2598C6.1697 13.4766 6.36408 12.6964 6.77872 12.0299C7.19336 11.3633 7.80723 10.8441 8.53337 10.5458C9.25951 10.2475 10.0611 10.1853 10.8246 10.3679C11.588 10.5506 12.2747 10.9688 12.7872 11.5634C13.2998 12.158 13.6122 12.8988 13.6803 13.6809C14.4866 13.7619 15.2971 13.5745 15.986 13.1477C16.6749 12.721 17.2037 12.0788 17.4903 11.3209C16.8629 9.57131 15.6458 8.09482 14.0482 7.14498C12.4505 6.19515 10.572 5.83126 8.73526 6.1158C6.89849 6.40034 5.21813 7.31556 3.98275 8.70427C2.74738 10.093 2.0341 11.8685 1.96543 13.7259C1.89675 15.5833 2.47696 17.4067 3.6064 18.8828C4.73585 20.359 6.34404 21.3958 8.15477 21.8152C9.96551 22.2346 11.8658 22.0104 13.5292 21.1811C15.1926 20.3519 16.5154 18.9693 17.2703 17.2709C15.3863 18.1097 13.2511 18.1885 11.3103 17.4909Z" fill="#F77407"/>
</svg>
