<svg width="18" height="20" viewBox="0 0 18 20" fill="none" xmlns="http://www.w3.org/2000/svg">
<path opacity="0.3" d="M14.03 0H3.97C2.05357 0 0.5 1.55357 0.5 3.47V16.53C0.5 18.4464 2.05357 20 3.97 20H14.03C15.9464 20 17.5 18.4464 17.5 16.53V3.47C17.5 1.55357 15.9464 0 14.03 0Z" fill="#1078CA"/>
<path d="M4 20H14C14.9195 19.9974 15.8006 19.6309 16.4507 18.9807C17.1009 18.3306 17.4674 17.4495 17.47 16.53V13H3.43C2.65292 13 1.90766 13.3087 1.35818 13.8582C0.808696 14.4077 0.5 15.1529 0.5 15.93V16.53C0.501308 16.9878 0.59295 17.4409 0.769674 17.8633C0.946398 18.2857 1.20473 18.669 1.52987 18.9914C1.85501 19.3137 2.24056 19.5687 2.66443 19.7418C3.0883 19.9149 3.54216 20.0026 4 20Z" fill="#1078CA"/>
<path d="M12.8304 5.75H5.15039C4.95148 5.75 4.76071 5.67098 4.62006 5.53033C4.47941 5.38968 4.40039 5.19891 4.40039 5C4.40039 4.80109 4.47941 4.61032 4.62006 4.46967C4.76071 4.32902 4.95148 4.25 5.15039 4.25H12.8304C13.0293 4.25 13.2201 4.32902 13.3607 4.46967C13.5014 4.61032 13.5804 4.80109 13.5804 5C13.5804 5.19891 13.5014 5.38968 13.3607 5.53033C13.2201 5.67098 13.0293 5.75 12.8304 5.75Z" fill="#1078CA"/>
<path d="M9.94039 9.32031H5.15039C4.95148 9.32031 4.76071 9.2413 4.62006 9.10064C4.47941 8.95999 4.40039 8.76922 4.40039 8.57031C4.40039 8.3714 4.47941 8.18064 4.62006 8.03998C4.76071 7.89933 4.95148 7.82031 5.15039 7.82031H9.94039C10.1393 7.82031 10.3301 7.89933 10.4707 8.03998C10.6114 8.18064 10.6904 8.3714 10.6904 8.57031C10.6904 8.76922 10.6114 8.95999 10.4707 9.10064C10.3301 9.2413 10.1393 9.32031 9.94039 9.32031Z" fill="#1078CA"/>
</svg>
