<svg width="21" height="20" viewBox="0 0 21 20" fill="none" xmlns="http://www.w3.org/2000/svg">
<path d="M13.9476 14.5013C14.1226 14.3648 14.2813 14.2061 14.5988 13.8886L18.5562 9.93125C18.6518 9.83557 18.6081 9.67078 18.4802 9.62643C18.0131 9.46437 17.4054 9.1601 16.837 8.59168C16.2686 8.02326 15.9643 7.41561 15.8023 6.94849C15.7579 6.82066 15.5931 6.77687 15.4975 6.87254L11.5401 10.8299C11.2226 11.1474 11.0639 11.3061 10.9274 11.4811C10.7664 11.6876 10.6283 11.9109 10.5157 12.1473C10.4202 12.3476 10.3492 12.5606 10.2073 12.9865L10.0238 13.5368L9.73215 14.4118L9.45866 15.2323C9.3888 15.4419 9.44334 15.6729 9.59956 15.8292C9.75577 15.9854 9.98684 16.0399 10.1964 15.9701L11.0169 15.6966L11.892 15.4049L12.4423 15.2214L12.4423 15.2214C12.8682 15.0795 13.0811 15.0085 13.2814 14.913C13.5178 14.8004 13.7412 14.6623 13.9476 14.5013Z" fill="#929393"/>
<path d="M19.7952 8.69218C20.6399 7.84754 20.6399 6.47812 19.7952 5.63348C18.9506 4.78884 17.5812 4.78884 16.7365 5.63348L16.6093 5.76071C16.4865 5.88348 16.4309 6.05496 16.4616 6.22586C16.4809 6.33336 16.5166 6.49053 16.5817 6.67807C16.7118 7.05314 16.9576 7.54549 17.4204 8.00832C17.8832 8.47115 18.3756 8.71688 18.7506 8.84701C18.9382 8.91207 19.0954 8.94784 19.2029 8.96713C19.3737 8.99781 19.5452 8.94218 19.668 8.81941L19.7952 8.69218Z" fill="#929393"/>
<path fill-rule="evenodd" clip-rule="evenodd" d="M1.17157 1.17157C0 2.34315 0 4.22876 0 8V12C0 15.7712 0 17.6569 1.17157 18.8284C2.34315 20 4.22876 20 8 20H10C13.7712 20 15.6569 20 16.8284 18.8284C17.9812 17.6756 17.9997 15.8316 18 12.1801L15.1817 14.9984C14.9119 15.2683 14.691 15.4894 14.4415 15.6841C14.1491 15.9121 13.8328 16.1076 13.4981 16.2671C13.2124 16.4032 12.9159 16.502 12.5538 16.6225L10.2421 17.3931C9.49352 17.6426 8.66819 17.4478 8.11023 16.8898C7.55226 16.3318 7.35743 15.5065 7.60696 14.7579L7.88046 13.9375L8.35557 12.5121L8.37749 12.4463C8.49805 12.0842 8.59679 11.7876 8.73294 11.5019C8.89245 11.1672 9.08794 10.8509 9.31597 10.5586C9.5106 10.309 9.73172 10.0881 10.0017 9.81831L14.0081 5.81188L15.12 4.70004L15.2472 4.57282C15.9626 3.85741 16.9003 3.49981 17.838 3.5C17.6867 2.46945 17.3941 1.73727 16.8284 1.17157C15.6569 0 13.7712 0 10 0H8C4.22876 0 2.34315 0 1.17157 1.17157ZM4.25 7C4.25 6.58579 4.58579 6.25 5 6.25H11.5C11.9142 6.25 12.25 6.58579 12.25 7C12.25 7.41421 11.9142 7.75 11.5 7.75H5C4.58579 7.75 4.25 7.41421 4.25 7ZM4.25 11C4.25 10.5858 4.58579 10.25 5 10.25H7.5C7.91421 10.25 8.25 10.5858 8.25 11C8.25 11.4142 7.91421 11.75 7.5 11.75H5C4.58579 11.75 4.25 11.4142 4.25 11ZM4.25 15C4.25 14.5858 4.58579 14.25 5 14.25H6.5C6.91421 14.25 7.25 14.5858 7.25 15C7.25 15.4142 6.91421 15.75 6.5 15.75H5C4.58579 15.75 4.25 15.4142 4.25 15Z" fill="#929393"/>
</svg>
