<svg width="8" height="7" viewBox="0 0 8 7" fill="none" xmlns="http://www.w3.org/2000/svg">
<path d="M4.60453 0.814409L5.22221 1.99746C5.30544 2.16107 5.52888 2.3163 5.71725 2.34986L6.83438 2.52606C7.54845 2.63933 7.71491 3.13435 7.20237 3.62942L6.33059 4.46428C6.18604 4.60268 6.10281 4.87542 6.15097 5.07255L6.40066 6.10462C6.59778 6.91849 6.14222 7.23729 5.39308 6.80936L4.34608 6.21369C4.15771 6.10462 3.84229 6.10462 3.65392 6.21369L2.60693 6.80936C1.85779 7.23309 1.4022 6.91849 1.59933 6.10462L1.84904 5.07255C1.89723 4.87955 1.81399 4.60688 1.66943 4.46428L0.797655 3.62942C0.2851 3.13855 0.451575 2.64353 1.16564 2.52606L2.28273 2.34986C2.4711 2.32049 2.6945 2.16107 2.77773 1.99746L3.39548 0.814409C3.72399 0.172541 4.26726 0.172541 4.60453 0.814409Z" fill="#BBDEFA"/>
</svg>
