<svg width="14" height="14" viewBox="0 0 14 14" fill="none" xmlns="http://www.w3.org/2000/svg">
  <path d="M6.1192 0.309676C6.60206 -0.103225 7.39271 -0.103225 7.88257 0.309676L8.98815 1.26152C9.19808 1.44347 9.58987 1.59041 9.8698 1.59041H11.0594C11.8011 1.59041 12.4098 2.19921 12.4098 2.94103V4.13078C12.4098 4.40372 12.5568 4.80263 12.7388 5.01257L13.6904 6.11828C14.1032 6.60115 14.1032 7.39195 13.6904 7.88182L12.7388 8.98756C12.5568 9.19749 12.4098 9.58942 12.4098 9.86936V11.0591C12.4098 11.8009 11.8011 12.4097 11.0594 12.4097H9.8698C9.59687 12.4097 9.19808 12.5566 8.98815 12.7386L7.88257 13.6904C7.39971 14.1032 6.60906 14.1032 6.1192 13.6904L5.01363 12.7386C4.80372 12.5566 4.41185 12.4097 4.13196 12.4097H2.9214C2.17968 12.4097 1.57092 11.8009 1.57092 11.0591V9.86236C1.57092 9.58942 1.42397 9.19749 1.24904 8.98756L0.30439 7.87482C-0.101463 7.39195 -0.101463 6.60815 0.30439 6.12528L1.24904 5.01257C1.42397 4.80263 1.57092 4.41072 1.57092 4.13779V2.94103C1.57092 2.19921 2.17968 1.59041 2.9214 1.59041H4.13196C4.40485 1.59041 4.80372 1.44347 5.01363 1.26152L6.1192 0.309676Z" fill="#1078CA"/>
  <g transform="translate(7, 7)">
    <g transform="translate(-4, -3.5)">
      <path d="M4.60453 0.814409L5.22221 1.99746C5.30544 2.16107 5.52888 2.3163 5.71725 2.34986L6.83438 2.52606C7.54845 2.63933 7.71491 3.13435 7.20237 3.62942L6.33059 4.46428C6.18604 4.60268 6.10281 4.87542 6.15097 5.07255L6.40066 6.10462C6.59778 6.91849 6.14222 7.23729 5.39308 6.80936L4.34608 6.21369C4.15771 6.10462 3.84229 6.10462 3.65392 6.21369L2.60693 6.80936C1.85779 7.23309 1.4022 6.91849 1.59933 6.10462L1.84904 5.07255C1.89723 4.87955 1.81399 4.60688 1.66943 4.46428L0.797655 3.62942C0.2851 3.13855 0.451575 2.64353 1.16564 2.52606L2.28273 2.34986C2.4711 2.32049 2.6945 2.16107 2.77773 1.99746L3.39548 0.814409C3.72399 0.172541 4.26726 0.172541 4.60453 0.814409Z" fill="#BBDEFA"/>
    </g>
  </g>
</svg>