<svg width="22" height="20" viewBox="0 0 22 20" fill="none" xmlns="http://www.w3.org/2000/svg">
<path fill-rule="evenodd" clip-rule="evenodd" d="M1.56508 18.0741C1.1605 18.0741 0.83252 18.3935 0.83252 18.7875C0.83252 19.1815 1.1605 19.5009 1.56508 19.5009H21.1C21.5045 19.5009 21.8325 19.1815 21.8325 18.7875C21.8325 18.3935 21.5045 18.0741 21.1 18.0741H20.1232H17.6814H16.2162V13.0802C16.2162 11.2866 16.2162 10.3898 15.6441 9.8326C15.0719 9.27539 14.151 9.27539 12.3093 9.27539H10.3558C8.51401 9.27539 7.59313 9.27539 7.02096 9.8326C6.4488 10.3898 6.4488 11.2866 6.4488 13.0802V18.0741H4.98368H2.54182H1.56508ZM8.64647 12.129C8.64647 11.735 8.97445 11.4156 9.37903 11.4156H13.286C13.6906 11.4156 14.0186 11.735 14.0186 12.129C14.0186 12.523 13.6906 12.8424 13.286 12.8424H9.37903C8.97445 12.8424 8.64647 12.523 8.64647 12.129ZM8.64647 14.9827C8.64647 14.5887 8.97445 14.2693 9.37903 14.2693H13.286C13.6906 14.2693 14.0186 14.5887 14.0186 14.9827C14.0186 15.3767 13.6906 15.6961 13.286 15.6961H9.37903C8.97445 15.6961 8.64647 15.3767 8.64647 14.9827Z" fill="#BBDEFA"/>
<path d="M7.42571 2.14023C8.3466 2.14023 8.80704 2.14023 9.09312 2.41883C9.3792 2.69743 9.3792 3.14584 9.3792 4.04265L9.37919 5.74763C9.53233 5.82011 9.6655 5.91149 9.78378 6.02667C10.1785 6.41104 10.3009 6.95702 10.3389 7.84749V9.27431C8.50848 9.27432 7.59152 9.27604 7.02113 9.83152C6.44897 10.3887 6.44897 11.2855 6.44897 13.0792V18.073H2.54199V9.27431C2.54199 7.48069 2.54199 6.58388 3.11416 6.02667C3.23243 5.91149 3.36561 5.82012 3.51874 5.74763V4.04265C3.51874 3.14584 3.51874 2.69743 3.80482 2.41883C4.0909 2.14023 4.55134 2.14023 5.47222 2.14023H5.71641V0.713409C5.71641 0.319404 6.04439 0 6.44897 0C6.85355 0 7.18153 0.319404 7.18153 0.713409V2.14023H7.42571Z" fill="#1078CA"/>
<path d="M19.7755 2.85055C19.4277 2.3617 18.8145 2.13779 17.5882 1.68996C15.1901 0.814157 13.991 0.376255 13.1502 0.943692C12.3094 1.51113 12.3094 2.75827 12.3094 5.25254V9.27431C14.1512 9.27431 15.0721 9.27431 15.6442 9.83152C16.2164 10.3887 16.2164 11.2855 16.2164 13.0792V18.073H20.1234V5.25254C20.1234 3.97711 20.1234 3.3394 19.7755 2.85055Z" fill="#1078CA"/>
</svg>
