<svg width="20" height="20" viewBox="0 0 20 20" fill="none" xmlns="http://www.w3.org/2000/svg">
<path d="M15.886 0.584744C15.1064 -0.194915 13.8422 -0.194915 13.0626 0.584744L9.53337 4.11403C9.23949 4.40785 9.05641 4.77047 8.98404 5.15003V3.03009C8.98404 1.92748 8.09023 1.03363 6.98759 1.03363H1.99645C0.893842 1.03363 0 1.92748 0 3.03009V8.02125C0 9.12386 0.893842 10.0177 1.99645 10.0177H6.98759C8.09023 10.0177 8.98404 9.12386 8.98404 8.02125V5.90146C9.05641 6.28102 9.23949 6.64363 9.53337 6.93745L13.0626 10.4668C13.3563 10.7605 13.7188 10.9435 14.0983 11.0159H11.9787C10.8761 11.0159 9.98227 11.9098 9.98227 13.0124V18.0035C9.98227 19.1062 10.8761 20 11.9787 20H16.9699C18.0725 20 18.9663 19.1062 18.9663 18.0035V13.0124C18.9663 11.9098 18.0725 11.0159 16.9699 11.0159H14.8503C15.2297 10.9435 15.5923 10.7605 15.886 10.4668L19.4152 6.93746C20.1949 6.15779 20.1949 4.8937 19.4152 4.11403L15.886 0.584744Z" fill="#929393"/>
<path d="M0 13.0121C0 11.9095 0.893842 11.0156 1.99645 11.0156H6.98759C8.09023 11.0156 8.98404 11.9095 8.98404 13.0121V18.0033C8.98404 19.1059 8.09023 19.9997 6.98759 19.9997H1.99645C0.893842 19.9997 0 19.1059 0 18.0033V13.0121Z" fill="#929393"/>
</svg>
