<svg width="16" height="20" viewBox="0 0 16 20" fill="none" xmlns="http://www.w3.org/2000/svg">
<path fill-rule="evenodd" clip-rule="evenodd" d="M3.42857 0C1.53503 0 0 1.49239 0 3.33333V15H2.28571C4.17926 15 5.71429 16.4923 5.71429 18.3333V20H12.5714C14.465 20 16 18.5077 16 16.6667V3.33333C16 1.49239 14.465 0 12.5714 0H3.42857ZM3.71429 4.44444C3.71429 3.98421 4.09805 3.61111 4.57143 3.61111H11.4286C11.9019 3.61111 12.2857 3.98421 12.2857 4.44444C12.2857 4.90468 11.9019 5.27778 11.4286 5.27778H4.57143C4.09805 5.27778 3.71429 4.90468 3.71429 4.44444ZM4.57143 9.16667C4.09805 9.16667 3.71429 9.53978 3.71429 10C3.71429 10.4602 4.09805 10.8333 4.57143 10.8333H11.4286C11.9019 10.8333 12.2857 10.4602 12.2857 10C12.2857 9.53978 11.9019 9.16667 11.4286 9.16667H4.57143Z" fill="#777777"/>
</svg>
