<svg width="20" height="20" viewBox="0 0 20 20" fill="none" xmlns="http://www.w3.org/2000/svg">
<path d="M1.79855 8.63385C2.05852 6.29688 3.34389 4.26007 5.20663 2.96058L5.94076 3.48146C9.2082 5.79984 13.2152 6.90711 17.2435 6.6048L17.6822 6.57187C17.9439 7.22219 18.1213 7.91376 18.2014 8.63385C17.9789 8.57054 17.7435 8.53659 17.5 8.53659C16.1193 8.53659 15 9.62859 15 10.9756V14.878C15 15.7809 15.5027 16.5691 16.25 16.9907V18.2927C16.25 18.4274 16.1381 18.5366 16 18.5366H10C9.5858 18.5366 9.25 18.8642 9.25 19.2683C9.25 19.6724 9.5858 20 10 20H16C16.9665 20 17.75 19.2356 17.75 18.2927V17.3051C19.0133 17.1826 20 16.1427 20 14.878V10.9756C20 10.594 19.9102 10.2329 19.75 9.91122V9.5122C19.75 4.25875 15.3848 0 10 0C4.61522 0 0.25 4.25875 0.25 9.5122V9.91122C0.08984 10.2329 0 10.594 0 10.9756V14.878C0 16.2251 1.11929 17.3171 2.5 17.3171C3.88071 17.3171 5 16.2251 5 14.878V10.9756C5 9.62859 3.88071 8.53659 2.5 8.53659C2.25648 8.53659 2.0211 8.57054 1.79855 8.63385Z" fill="#929393"/>
<path d="M8.75 11.4634C8.75 11.0593 8.4142 10.7317 8 10.7317C7.58579 10.7317 7.25 11.0593 7.25 11.4634V11.9512C7.25 12.3553 7.58579 12.6829 8 12.6829C8.4142 12.6829 8.75 12.3553 8.75 11.9512V11.4634Z" fill="#929393"/>
<path d="M6.55004 13.8049C6.87636 13.5661 7.3372 13.626 7.58851 13.9367L7.59117 13.9395C7.59917 13.9481 7.61856 13.968 7.65066 13.9958C7.71461 14.0513 7.83028 14.1393 8.0092 14.2325C8.363 14.4165 8.9907 14.6341 10 14.6341C11.0094 14.6341 11.6371 14.4165 11.9909 14.2325C12.1698 14.1393 12.2855 14.0513 12.3494 13.9958C12.3815 13.968 12.4009 13.9481 12.4089 13.9395L12.4116 13.9367C12.6629 13.626 13.1237 13.5661 13.45 13.8049C13.7814 14.0474 13.8486 14.506 13.6 14.8293L13 14.3902C13.6 14.8293 13.6 14.8293 13.6 14.8293L13.5974 14.8328L13.5944 14.8366L13.5874 14.8454L13.58 14.8543L13.5696 14.8669C13.556 14.883 13.5388 14.9025 13.5179 14.9249C13.4761 14.9697 13.4193 15.026 13.346 15.0897C13.199 15.2171 12.9865 15.3729 12.6967 15.5237C12.113 15.8275 11.2407 16.0976 10 16.0976C8.7594 16.0976 7.88713 15.8275 7.30335 15.5237C7.01355 15.3729 6.80111 15.2171 6.65412 15.0897C6.58075 15.026 6.52397 14.9697 6.48216 14.9249C6.46126 14.9025 6.4441 14.883 6.43049 14.8669C6.42368 14.8588 6.41776 14.8516 6.41269 14.8454L6.40573 14.8366L6.40273 14.8328L6.40135 14.831C6.40135 14.831 6.40004 14.8293 7.00004 14.3902L6.40004 14.8293C6.15152 14.506 6.21867 14.0474 6.55004 13.8049Z" fill="#929393"/>
<path d="M12 10.7317C12.4142 10.7317 12.75 11.0593 12.75 11.4634V11.9512C12.75 12.3553 12.4142 12.6829 12 12.6829C11.5858 12.6829 11.25 12.3553 11.25 11.9512V11.4634C11.25 11.0593 11.5858 10.7317 12 10.7317Z" fill="#929393"/>
</svg>
