<svg width="18" height="20" viewBox="0 0 18 20" fill="none" xmlns="http://www.w3.org/2000/svg">
<path d="M0.5 16.5301V15.9301C0.5 15.153 0.808696 14.4077 1.35818 13.8582C1.90766 13.3088 2.65292 13.0001 3.43 13.0001H17.5V16.5301C17.4987 16.9879 17.407 17.441 17.2303 17.8634C17.0536 18.2857 16.7953 18.6691 16.4701 18.9914C16.145 19.3138 15.7594 19.5688 15.3356 19.7419C14.9117 19.915 14.4578 20.0027 14 20.0001H4C3.54216 20.0027 3.0883 19.915 2.66443 19.7419C2.24056 19.5688 1.85501 19.3138 1.52987 18.9914C1.20473 18.6691 0.946398 18.2857 0.769674 17.8634C0.59295 17.441 0.501308 16.9879 0.5 16.5301ZM17.5 3.47006V11.4701H3.43C2.3438 11.4827 1.30047 11.8957 0.5 12.6301V3.47006C0.501308 3.01221 0.59295 2.55912 0.769674 2.13676C0.946398 1.71439 1.20473 1.33105 1.52987 1.0087C1.85501 0.686349 2.24056 0.431326 2.66443 0.258244C3.0883 0.0851626 3.54216 -0.00257562 4 5.75583e-05H14C14.4578 -0.00257562 14.9117 0.0851626 15.3356 0.258244C15.7594 0.431326 16.145 0.686349 16.4701 1.0087C16.7953 1.33105 17.0536 1.71439 17.2303 2.13676C17.407 2.55912 17.4987 3.01221 17.5 3.47006ZM10.69 8.57006C10.6874 8.37195 10.6076 8.18269 10.4675 8.04259C10.3274 7.9025 10.1381 7.82265 9.94 7.82006H5.15C4.95109 7.82006 4.76032 7.89908 4.61967 8.03973C4.47902 8.18038 4.4 8.37114 4.4 8.57006C4.4 8.76897 4.47902 8.95973 4.61967 9.10039C4.76032 9.24104 4.95109 9.32006 5.15 9.32006H9.94C10.1389 9.32006 10.3297 9.24104 10.4703 9.10039C10.611 8.95973 10.69 8.76897 10.69 8.57006ZM13.58 5.00006C13.58 4.80115 13.501 4.61038 13.3603 4.46973C13.2197 4.32908 13.0289 4.25006 12.83 4.25006H5.15C4.95109 4.25006 4.76032 4.32908 4.61967 4.46973C4.47902 4.61038 4.4 4.80115 4.4 5.00006C4.4 5.19897 4.47902 5.38974 4.61967 5.53039C4.76032 5.67104 4.95109 5.75006 5.15 5.75006H12.83C13.0289 5.75006 13.2197 5.67104 13.3603 5.53039C13.501 5.38974 13.58 5.19897 13.58 5.00006Z" fill="#929393"/>
</svg>
