<?xml version="1.0" encoding="UTF-8"?>
<svg xmlns="http://www.w3.org/2000/svg" version="1.1" viewBox="0 0 763.5 201">
  <defs>
    <style>
      .cls-1 {
        fill: #ec670f;
      }

      .cls-2 {
        fill: #194087;
      }
    </style>
  </defs>
  <!-- Generator: Adobe Illustrator 28.6.0, SVG Export Plug-In . SVG Version: 1.2.0 Build 709)  -->
  <g>
    <g id="Layer_1">
      <g>
        <path class="cls-1" d="M538.03,79.6v32.16l27.9-32.16h27.56l-31.17,33.47,31.5,53.83h-27.59l-16.08-29.55c-3.26-5.88-6.12-8.4-8.53-7.55-2.38.9-3.6,2.21-3.6,3.96v33.14h-22.98V39.02h22.98v40.58Z"/>
        <path class="cls-1" d="M679.5,166.9h-22.67v-52.61c0-5.26-1.57-9.1-4.75-11.49-3.16-2.4-6.74-3.63-10.67-3.63s-7.43,1.23-10.52,3.63c-3.05,2.39-4.58,6.23-4.58,11.49v52.61h-22.98v-51.2c0-14.88,3.88-24.83,11.67-29.87,7.74-5.03,16.35-7.77,25.74-8.19,5.06,0,9.98.52,14.78,1.63,4.82,1.11,9.22,3.28,13.15,6.57,3.28-2.84,7.14-4.88,11.65-6.09,4.47-1.2,9.12-1.9,13.95-2.1,9.62,0,18.49,2.51,26.58,7.53,8.1,5.05,12.16,15.23,12.16,30.53v51.2h-22.65v-52.61c0-5.26-1.6-9.1-4.76-11.49-3.17-2.4-6.74-3.63-10.67-3.63s-7.51,1.23-10.67,3.63c-3.17,2.39-4.75,6.23-4.75,11.49v52.61Z"/>
        <path class="cls-1" d="M449.13,115.8c0-17.77-9.15-28.04-11.77-30.65-3.67-2.86-7.74-4.81-12.17-5.81-4.84-1.08-9.74-1.63-14.79-1.63-9.4.43-18,3.16-25.77,8.18-7.77,5.05-11.65,14.99-11.65,29.9v51.18h22.98v-52.62c0-5.25,1.53-9.06,4.58-11.49,3.08-2.4,6.58-3.6,10.52-3.6s7.48,1.2,10.67,3.6c3.16,2.43,4.76,6.24,4.76,11.49v52.62h22.63v-51.18h0Z"/>
        <path class="cls-1" d="M490.49,85.27c-8.08-5.06-16.97-7.56-26.58-7.56-4.8.23-9.47.94-13.95,2.13-3.21.85-6.06,2.13-8.67,3.83,6.34,6.91,9.3,14.86,10.64,21.13.59-.73,1.22-1.37,1.96-1.93,3.16-2.4,6.73-3.6,10.67-3.6s7.49,1.2,10.67,3.6c3.16,2.43,4.74,6.24,4.74,11.49v52.62h22.68v-51.18c0-15.34-4.08-25.51-12.16-30.53"/>
        <path class="cls-1" d="M360.78,79.55v54.06c0,15.54-4.05,25.71-12.11,30.53-8.12,4.82-16.97,7.22-26.6,7.22-9.44-.45-17.99-3.07-25.76-7.89-7.78-4.8-11.64-14.78-11.64-29.87v-54.06h22.97v58.65c0,5.25,1.51,9.09,4.58,11.49,3.08,2.4,6.56,3.6,10.5,3.6s7.52-1.2,10.68-3.6c3.17-2.4,4.75-6.24,4.75-11.49v-58.65h22.63Z"/>
        <path class="cls-1" d="M421.97,43.44c-5.95-5.96-15.6-5.96-21.57,0-.94.95-1.68,1.98-2.35,3.07-3.43,5.85-2.69,13.48,2.35,18.48,5.97,5.97,15.62,5.97,21.57,0,5.03-5.01,5.8-12.65,2.35-18.51-.67-1.1-1.41-2.11-2.35-3.04"/>
        <path class="cls-1" d="M475.8,43.44c-5.96-5.96-15.62-5.96-21.57,0-.94.95-1.7,1.98-2.35,3.07-3.44,5.85-2.67,13.48,2.35,18.48,5.95,5.97,15.61,5.97,21.57,0,5.01-5.01,5.8-12.65,2.33-18.51-.62-1.1-1.41-2.11-2.33-3.04"/>
        <path class="cls-2" d="M220.02,79.6v32.16l27.9-32.16h27.56l-31.18,33.47,31.49,53.83h-27.56l-16.08-29.55c-3.28-5.88-6.12-8.4-8.56-7.55-2.38.9-3.58,2.21-3.58,3.96v33.14h-22.98V39.02h22.98v40.58Z"/>
        <rect class="cls-2" x="27" y="39.02" width="22.98" height="127.88"/>
        <path class="cls-2" d="M91.37,41.81c-5.97-5.96-15.6-5.96-21.55,0-.96.94-1.73,1.99-2.37,3.06-3.43,5.85-2.66,13.48,2.35,18.5,5.95,5.95,15.6,5.95,21.57,0,5.03-5.03,5.78-12.69,2.35-18.53-.67-1.08-1.43-2.11-2.35-3.02"/>
        <rect class="cls-2" x="69.35" y="79.2" width="23" height="87.71"/>
        <path class="cls-2" d="M173.06,85.83c-3.95-3.28-8.32-5.46-13.13-6.57-4.82-1.09-9.74-1.63-14.76-1.63-9.42.43-18,3.16-25.77,8.19-7.77,5.03-11.67,14.99-11.67,29.87v51.2h22.98v-52.61c0-5.26,1.53-9.08,4.6-11.49,3.05-2.4,6.55-3.63,10.5-3.63s7.51,1.23,10.67,3.63c3.18,2.42,4.76,6.23,4.76,11.49v52.61h22.65v-52.61c0-21.65-10.84-28.46-10.84-28.46"/>
      </g>
    </g>
  </g>
</svg>