<svg width="20" height="14" viewBox="0 0 20 14" fill="none" xmlns="http://www.w3.org/2000/svg">
<path d="M6.50007 6.87738C8.43305 6.87738 10.0001 5.33778 10.0001 3.43865C10.0001 1.53955 8.43305 0 6.50007 0C4.56708 0 3.00007 1.53955 3.00007 3.43865C3.00007 5.33778 4.56708 6.87738 6.50007 6.87738Z" fill="#929393"/>
<path d="M0 11.5438C0 10.1873 1.11929 9.08757 2.5 9.08757H10.5C11.8808 9.08757 13 10.1873 13 11.5438C13 12.9003 11.8808 14 10.5 14H2.5C1.11929 14 0 12.9003 0 11.5438Z" fill="#929393"/>
<path d="M17.5 9.08757H14.1577C15.6765 10.3851 15.6765 12.7025 14.1577 14H17.5C18.8807 14 20 12.9003 20 11.5438C20 10.1873 18.8807 9.08757 17.5 9.08757Z" fill="#929393"/>
<path d="M18.0001 4.42075C18.0001 5.77735 16.8808 6.87696 15.5001 6.87696C14.1193 6.87696 13 5.77735 13 4.42075C13 3.06423 14.1193 1.96459 15.5001 1.96459C16.8808 1.96459 18.0001 3.06423 18.0001 4.42075Z" fill="#929393"/>
</svg>
