<svg width="18" height="20" viewBox="0 0 18 20" fill="none" xmlns="http://www.w3.org/2000/svg">
<path fill-rule="evenodd" clip-rule="evenodd" d="M4.24502 0H13.755C14.9139 0 15.4933 0 15.9606 0.162607C16.8468 0.470955 17.5425 1.18719 17.842 2.09946C18 2.58055 18 3.17705 18 4.37006V18.3742C18 19.2324 17.015 19.6878 16.3919 19.1176C16.0258 18.7826 15.4742 18.7826 15.1081 19.1176L14.625 19.5597C13.9834 20.1468 13.0166 20.1468 12.375 19.5597C11.7334 18.9726 10.7666 18.9726 10.125 19.5597C9.48341 20.1468 8.51659 20.1468 7.875 19.5597C7.23341 18.9726 6.26659 18.9726 5.625 19.5597C4.98341 20.1468 4.01659 20.1468 3.375 19.5597L2.8919 19.1176C2.52583 18.7826 1.97417 18.7826 1.6081 19.1176C0.984997 19.6878 0 19.2324 0 18.3742V4.37006C0 3.17705 0 2.58055 0.157954 2.09946C0.457479 1.18719 1.15322 0.470955 2.03939 0.162607C2.50671 0 3.08614 0 4.24502 0ZM4 4.75C3.58579 4.75 3.25 5.08579 3.25 5.5C3.25 5.91421 3.58579 6.25 4 6.25H4.5C4.91421 6.25 5.25 5.91421 5.25 5.5C5.25 5.08579 4.91421 4.75 4.5 4.75H4ZM7.5 4.75C7.08579 4.75 6.75 5.08579 6.75 5.5C6.75 5.91421 7.08579 6.25 7.5 6.25H14C14.4142 6.25 14.75 5.91421 14.75 5.5C14.75 5.08579 14.4142 4.75 14 4.75H7.5ZM4 8.25C3.58579 8.25 3.25 8.58579 3.25 9C3.25 9.41421 3.58579 9.75 4 9.75H4.5C4.91421 9.75 5.25 9.41421 5.25 9C5.25 8.58579 4.91421 8.25 4.5 8.25H4ZM7.5 8.25C7.08579 8.25 6.75 8.58579 6.75 9C6.75 9.41421 7.08579 9.75 7.5 9.75H14C14.4142 9.75 14.75 9.41421 14.75 9C14.75 8.58579 14.4142 8.25 14 8.25H7.5ZM4 11.75C3.58579 11.75 3.25 12.0858 3.25 12.5C3.25 12.9142 3.58579 13.25 4 13.25H4.5C4.91421 13.25 5.25 12.9142 5.25 12.5C5.25 12.0858 4.91421 11.75 4.5 11.75H4ZM7.5 11.75C7.08579 11.75 6.75 12.0858 6.75 12.5C6.75 12.9142 7.08579 13.25 7.5 13.25H14C14.4142 13.25 14.75 12.9142 14.75 12.5C14.75 12.0858 14.4142 11.75 14 11.75H7.5Z" fill="#929393"/>
</svg>
