<svg width="20" height="20" viewBox="0 0 20 20" fill="none" xmlns="http://www.w3.org/2000/svg">
<g clip-path="url(#clip0_2126_21673)">
<path d="M8.45215 5.0892C8.45215 4.20935 9.1654 3.49609 10.0453 3.49609C10.9251 3.49609 11.6384 4.20935 11.6384 5.0892C11.6384 5.96905 10.9251 6.68231 10.0453 6.68231C9.1654 6.68231 8.45215 5.96905 8.45215 5.0892Z" fill="#B5B6B6"/>
<path fill-rule="evenodd" clip-rule="evenodd" d="M16.1109 6.94509C16.1109 8.44282 15.5721 9.81473 14.6778 10.8776C14.3138 9.55498 13.1026 8.5834 11.6644 8.5834H8.42567C6.95829 8.5834 5.72711 9.59482 5.39124 10.9586C4.45543 9.8849 3.88867 8.48123 3.88867 6.94509C3.88867 3.57003 6.62471 0.833984 9.99976 0.833984C13.3748 0.833984 16.1109 3.57003 16.1109 6.94509ZM10.0451 2.24595C8.47484 2.24595 7.20195 3.51885 7.20195 5.08906C7.20195 6.65926 8.47484 7.93217 10.0451 7.93217C11.6153 7.93217 12.8882 6.65926 12.8882 5.08906C12.8882 3.51885 11.6153 2.24595 10.0451 2.24595Z" fill="#929393"/>
<path fill-rule="evenodd" clip-rule="evenodd" d="M13.5395 11.9259V11.707C13.5395 10.6715 12.7 9.83203 11.6645 9.83203H8.42576C7.39025 9.83203 6.55078 10.6715 6.55078 11.707V11.9892C7.37071 12.5508 8.33451 12.9177 9.37551 13.0234C9.37492 13.0338 9.37467 13.0443 9.37467 13.0548V15.1322C8.36842 15.4064 7.62868 16.3268 7.62868 17.4199C7.62868 18.7294 8.69026 19.791 9.99976 19.791C11.3092 19.791 12.3708 18.7294 12.3708 17.4199C12.3708 16.3268 11.6309 15.4064 10.6247 15.1322V13.0548C10.6247 13.0443 10.6244 13.0338 10.6239 13.0234C11.7036 12.9139 12.7003 12.5233 13.5395 11.9259ZM9.99976 16.2989C9.38059 16.2989 8.87867 16.8009 8.87867 17.4199C8.87867 18.0391 9.38059 18.541 9.99976 18.541C10.6188 18.541 11.1208 18.0391 11.1208 17.4199C11.1208 16.8009 10.6188 16.2989 9.99976 16.2989Z" fill="#929393"/>
<path fill-rule="evenodd" clip-rule="evenodd" d="M5.41522 11.5385C5.6593 11.7826 5.6593 12.1784 5.41522 12.4224L4.92534 12.9123C5.4429 13.8178 5.3152 14.9916 4.54224 15.7646C3.61629 16.6905 2.11504 16.6905 1.18909 15.7646C0.263143 14.8387 0.263143 13.3374 1.18909 12.4114C1.96209 11.6384 3.13602 11.5108 4.04148 12.0284L4.53134 11.5385C4.77542 11.2944 5.17115 11.2944 5.41522 11.5385ZM3.65832 13.2954L3.65243 13.2894C3.21419 12.8576 2.5088 12.8595 2.07297 13.2954C1.63518 13.7331 1.63518 14.4429 2.07297 14.8807C2.51076 15.3185 3.22056 15.3185 3.65835 14.8807C4.09415 14.4449 4.09613 13.7395 3.66427 13.3013L3.65832 13.2954Z" fill="#929393"/>
<path fill-rule="evenodd" clip-rule="evenodd" d="M15.4771 11.5385C15.233 11.2944 14.8372 11.2944 14.5932 11.5385C14.3492 11.7826 14.3492 12.1784 14.5932 12.4224L15.0832 12.9124C14.5657 13.8179 14.6933 14.9917 15.4663 15.7646C16.3922 16.6905 17.8935 16.6905 18.8194 15.7646C19.7454 14.8387 19.7454 13.3374 18.8194 12.4114C18.0464 11.6384 16.8724 11.5108 15.967 12.0284L15.4771 11.5385ZM16.3478 13.2977L16.3501 13.2954L16.3524 13.2931C16.7904 12.8575 17.4985 12.8583 17.9356 13.2954C18.3733 13.7331 18.3733 14.4429 17.9356 14.8807C17.4977 15.3185 16.788 15.3185 16.3502 14.8807C15.9132 14.4437 15.9124 13.7357 16.3478 13.2977Z" fill="#929393"/>
</g>
<defs>
<clipPath id="clip0_2126_21673">
<rect width="20" height="20" fill="white"/>
</clipPath>
</defs>
</svg>
