<svg width="20" height="19" viewBox="0 0 20 19" fill="none" xmlns="http://www.w3.org/2000/svg">
<path d="M10.9763 0.613613L13.2028 5.0879C13.3668 5.41206 13.6799 5.63718 14.041 5.6872L19.042 6.41557C19.3341 6.45659 19.5992 6.61067 19.7782 6.84579C19.9552 7.07791 20.0312 7.37206 19.9882 7.66122C19.9532 7.90134 19.8402 8.12342 19.6672 8.29352L16.0434 11.8063C15.7783 12.0514 15.6583 12.4146 15.7223 12.7698L16.6145 17.7083C16.7095 18.3046 16.3144 18.8669 15.7223 18.98C15.4783 19.019 15.2282 18.978 15.0082 18.8659L10.5472 16.5417C10.2161 16.3746 9.82512 16.3746 9.49402 16.5417L5.03304 18.8659C4.48492 19.157 3.80577 18.9589 3.50071 18.4187C3.38768 18.2036 3.34767 17.9584 3.38468 17.7193L4.27687 12.7798C4.34089 12.4256 4.21986 12.0604 3.9558 11.8153L0.332022 8.30452C-0.0990784 7.88833 -0.112078 7.20298 0.303012 6.77176C0.312012 6.76275 0.322012 6.75275 0.332022 6.74274C0.504053 6.56765 0.730103 6.4566 0.974153 6.42758L5.97524 5.69821C6.33532 5.64718 6.64838 5.42407 6.81342 5.0979L8.95992 0.613613C9.15092 0.229422 9.54702 -0.00969811 9.97712 0.000301907H10.1111C10.4842 0.045332 10.8093 0.276442 10.9763 0.613613Z" fill="#929393"/>
</svg>
