<svg width="20" height="20" viewBox="0 0 24 24" fill="none" xmlns="http://www.w3.org/2000/svg">
  <path fill-rule="evenodd" clip-rule="evenodd" d="M12 0C12.5523 0 13 0.447715 13 1V3.26795C14.1046 3.61305 15.1046 4.10457 16 4.73205L17.7321 3C18.1226 2.60948 18.7558 2.60948 19.1463 3C19.5368 3.39052 19.5368 4.02369 19.1463 4.41421L17.4142 6.14645C18.0417 7.04171 18.5332 8.04171 18.8783 9.14645H21C21.5523 9.14645 22 9.59376 22 10.1464C22 10.6991 21.5523 11.1464 21 11.1464H18.8783C18.5332 12.2511 18.0417 13.2511 17.4142 14.1464L19.1463 15.8787C19.5368 16.2692 19.5368 16.9024 19.1463 17.2929C18.7558 17.6834 18.1226 17.6834 17.7321 17.2929L16 15.5607C15.1046 16.1882 14.1046 16.6797 13 17.0248V19.2929C13 19.8456 12.5523 20.2929 12 20.2929C11.4477 20.2929 11 19.8456 11 19.2929V17.0248C9.89543 16.6797 8.89543 16.1882 8 15.5607L6.26795 17.2929C5.87743 17.6834 5.24426 17.6834 4.85374 17.2929C4.46321 16.9024 4.46321 16.2692 4.85374 15.8787L6.58579 14.1464C5.95832 13.2511 5.4668 12.2511 5.1217 11.1464H3C2.44772 11.1464 2 10.6991 2 10.1464C2 9.59376 2.44772 9.14645 3 9.14645H5.1217C5.4668 8.04171 5.95832 7.04171 6.58579 6.14645L4.85374 4.41421C4.46321 4.02369 4.46321 3.39052 4.85374 3C5.24426 2.60948 5.87743 2.60948 6.26795 3L8 4.73205C8.89543 4.10457 9.89543 3.61305 11 3.26795V1C11 0.447715 11.4477 0 12 0ZM12 7.29289C10.3431 7.29289 9 8.63604 9 10.2929C9 11.9497 10.3431 13.2929 12 13.2929C13.6569 13.2929 15 11.9497 15 10.2929C15 8.63604 13.6569 7.29289 12 7.29289Z" fill="#1976D2"/>
</svg>