<svg width="20" height="18" viewBox="0 0 20 18" fill="none" xmlns="http://www.w3.org/2000/svg">
<path d="M7.86708 2.23278C7.59462 1.97561 7.1561 1.97561 6.27907 1.97561H6.04651V0.658537C6.04651 0.294837 5.73415 0 5.34884 0C4.96352 0 4.65116 0.294837 4.65116 0.658537V1.97561H4.4186C3.54157 1.97561 3.10306 1.97561 2.8306 2.23278C2.55814 2.48996 2.55814 2.90387 2.55814 3.73171V3.91065C2.7465 3.86393 2.93548 3.83135 3.12147 3.80775C3.72205 3.73153 4.46035 3.73161 5.26558 3.7317H5.43209C6.23733 3.73161 6.97562 3.73153 7.5762 3.80775C7.76219 3.83135 7.95117 3.86394 8.13952 3.91065L8.13953 3.73171C8.13953 2.90387 8.13953 2.48996 7.86708 2.23278Z" fill="#929393"/>
<path fill-rule="evenodd" clip-rule="evenodd" d="M0.697674 16.6829C0.312359 16.6829 0 16.9778 0 17.3415C0 17.7052 0.312359 18 0.697674 18H19.3023C19.6876 18 20 17.7052 20 17.3415C20 16.9778 19.6876 16.6829 19.3023 16.6829H18.3721V4.84854C18.3721 3.67121 18.3721 3.08255 18.0408 2.6313C17.7095 2.18005 17.1255 1.97336 15.9577 1.55997C13.6737 0.751533 12.5317 0.347316 11.731 0.871109C10.9302 1.3949 10.9302 2.54611 10.9302 4.84854V7.2439L11.0135 7.2439C11.8187 7.24381 12.557 7.24372 13.1576 7.31994C13.819 7.40387 14.518 7.60134 15.0929 8.14401C15.6678 8.68669 15.877 9.3465 15.966 9.97076C16.0467 10.5376 16.0466 11.2345 16.0465 11.9946L16.0465 12.0732V16.6829H14.6512V12.0732C14.6512 10.4175 14.6512 9.58967 14.1062 9.07533C13.5613 8.56098 12.6843 8.56098 10.9302 8.56098H9.06977C7.3157 8.56098 6.43867 8.56098 5.89375 9.07533C5.34884 9.58967 5.34884 10.4175 5.34884 12.0732V16.6829H3.95349V12.0732L3.95348 11.9946C3.95339 11.2345 3.9533 10.5376 4.03405 9.97076C4.12296 9.3465 4.33217 8.68669 4.90709 8.14401C5.48202 7.60134 6.18105 7.40387 6.8424 7.31994C7.44298 7.24372 8.18128 7.24381 8.98652 7.2439L9.05351 7.2439C9.01734 6.42191 8.90074 5.91794 8.52485 5.56313C7.97993 5.04878 7.1029 5.04878 5.34884 5.04878C3.59477 5.04878 2.71774 5.04878 2.17282 5.56313C1.62791 6.07748 1.62791 6.90531 1.62791 8.56098V16.6829H0.697674ZM7.44186 11.1951C7.44186 10.8314 7.75422 10.5366 8.13953 10.5366H11.8605C12.2458 10.5366 12.5581 10.8314 12.5581 11.1951C12.5581 11.5588 12.2458 11.8537 11.8605 11.8537H8.13953C7.75422 11.8537 7.44186 11.5588 7.44186 11.1951ZM7.44186 13.8293C7.44186 13.4656 7.75422 13.1707 8.13953 13.1707H11.8605C12.2458 13.1707 12.5581 13.4656 12.5581 13.8293C12.5581 14.193 12.2458 14.4878 11.8605 14.4878H8.13953C7.75422 14.4878 7.44186 14.193 7.44186 13.8293Z" fill="#929393"/>
</svg>
