<svg width="121" height="115" viewBox="0 0 121 115" fill="none" xmlns="http://www.w3.org/2000/svg">
<rect width="121" height="115" rx="12" fill="white"/>
<g clip-path="url(#clip0_1227_31116)">
<mask id="mask0_1227_31116" style="mask-type:luminance" maskUnits="userSpaceOnUse" x="-119" y="-682" width="778" height="1099">
<path d="M-118.683 416.032H658.541V-681.997H-118.683V416.032Z" fill="white"/>
</mask>
<g mask="url(#mask0_1227_31116)">
<path d="M12.5098 70.5956H19.6021C22.4745 70.5956 24.6158 71.8529 24.6158 74.5018C24.6158 76.4438 23.6222 77.525 21.8987 78.0989V78.1432C23.9538 78.5632 25.014 79.6666 25.014 81.5421C25.014 85.2279 21.7655 86 19.0041 86H12.5098V70.5956ZM16.6187 76.6877H17.7676C19.1151 76.6877 20.5082 76.3564 20.5082 75.0535C20.5082 73.6423 19.1817 73.5093 17.8107 73.5093H16.6187V76.6877ZM16.6187 83.0876H17.8342C19.337 83.0876 20.9051 82.8659 20.9051 81.2995C20.9051 79.6223 19.2926 79.4684 17.8773 79.4684H16.6187V83.0876Z" fill="#00529C"/>
</g>
<path d="M30.4078 70.5956H35.445L41.3883 86H36.8812L35.7322 82.712H29.9443L28.7287 86H24.5532L30.4078 70.5956ZM32.9264 73.774H32.882L30.8935 79.7996H34.7608L32.9264 73.774Z" fill="#00529C"/>
<path d="M41.96 70.5956H47.1956L52.4104 81.0569H52.4535L52.3882 70.5956H56.1446V86H51.0395L45.6497 75.4722H45.6067L45.7372 86H41.96V70.5956Z" fill="#00529C"/>
<path d="M57.5391 70.5956H61.648V76.886H61.6923L66.3313 70.5956H71.2798L65.5806 77.7676L71.7224 86H66.4854L61.6923 79.004H61.648V86H57.5391V70.5956Z" fill="#00529C"/>
<mask id="mask1_1227_31116" style="mask-type:luminance" maskUnits="userSpaceOnUse" x="-119" y="-682" width="778" height="1099">
<path d="M-118.683 416.032H658.541V-681.997H-118.683V416.032Z" fill="white"/>
</mask>
<g mask="url(#mask1_1227_31116)">
<path d="M76.8179 70.5956H83.9102C86.7813 70.5956 88.9252 71.8529 88.9252 74.5018C88.9252 76.4438 87.9316 77.525 86.2081 78.0989V78.1432C88.2632 78.5632 89.3221 79.6666 89.3221 81.5421C89.3221 85.2279 86.075 86 83.3135 86H76.8179V70.5956ZM80.9268 76.6877H82.0757C83.4245 76.6877 84.815 76.3564 84.815 75.0535C84.815 73.6423 83.4911 73.5093 82.1201 73.5093H80.9268V76.6877ZM80.9268 83.0876H82.1423C83.6438 83.0876 85.2132 82.8659 85.2132 81.2995C85.2132 79.6223 83.6007 79.4684 82.1867 79.4684H80.9268V83.0876Z" fill="#00529C"/>
<path d="M90.2339 70.5956H97.569C100.308 70.5956 102.54 71.832 102.54 74.4809C102.54 76.5325 101.568 77.9007 99.5798 78.3637V78.408C100.904 78.7615 100.992 79.9314 101.767 81.8069L103.268 86H98.9831L98.0991 83.2207C97.2596 80.5717 96.7282 79.9079 95.2045 79.9079H94.3428V86H90.2339V70.5956ZM94.3428 76.9955H95.4252C96.7517 76.9955 98.4308 76.9512 98.4308 75.2074C98.4308 73.774 96.9946 73.5093 95.4252 73.5093H94.3428V76.9955Z" fill="#00529C"/>
</g>
<path d="M104.401 70.5952H108.51V85.9996H104.401V70.5952Z" fill="#00529C"/>
<path d="M72.2658 29H48.4092C45.5124 29 43.1646 31.4131 43.1646 34.3899V34.4466V58.0879C43.1646 61.0356 45.469 63.4327 48.3281 63.4763H72.2528C75.1496 63.4763 77.4989 61.0647 77.4989 58.0879L77.5091 34.3899C77.5091 31.4131 75.1627 29 72.2658 29ZM51.2437 60.7146L49.9431 60.7291C48.3672 60.7291 47.0897 59.4303 47.0897 57.8278L47.0825 57.5998V35.7148L47.0912 34.5352C47.1506 32.985 48.3252 31.7385 49.862 31.7385H52.5082C54.9067 31.7385 56.8505 33.8306 56.8505 36.296C56.8505 37.5163 56.374 38.6233 55.602 39.4282L48.851 46.2999L55.179 52.7634C55.9945 53.6075 56.487 54.7145 56.487 55.9276C56.487 58.5717 54.1405 60.7146 51.2437 60.7146ZM70.6972 60.6928L58.9 60.6884C58.9 60.6884 60.2629 57.732 60.2629 55.9014C60.2629 53.6685 59.5199 51.6753 58.3554 50.3561L54.3201 46.2302L58.438 41.9619C59.6647 40.8069 60.4788 38.7556 60.4788 36.418C60.4788 34.5671 59.9689 32.9284 59.1477 31.7385H62.0054C64.4039 31.7385 66.3491 33.8306 66.3491 36.296C66.3491 37.5163 65.8726 38.6233 65.1006 39.4282L58.4785 46.2287L72.2325 60.2961C71.7966 60.5707 71.2476 60.6928 70.6972 60.6928ZM73.5781 56.301L63.7217 46.2244L68.416 41.4389C69.3705 40.2403 69.9774 38.4359 69.9774 36.418C69.9774 34.5555 69.4603 32.8746 68.6318 31.6848L70.732 31.7487C72.3079 31.7487 73.5853 33.0475 73.5853 34.6499L73.5781 56.301Z" fill="#00529C"/>
</g>
<defs>
<clipPath id="clip0_1227_31116">
<rect width="96" height="57" fill="white" transform="translate(12.5 29)"/>
</clipPath>
</defs>
</svg>
