<svg width="216" height="216" viewBox="0 0 216 216" fill="none" xmlns="http://www.w3.org/2000/svg">
<path d="M71.2963 68.1085C70.2488 72.0886 68.6945 75.8664 65.8901 79.2056C57.8821 88.7849 44.1977 90.4377 36.2911 100.287C28.3845 110.136 24.9718 122.076 25.5463 134.084C26.7289 159.247 44.5018 183.566 71.6342 185.488C86.8053 186.534 101.537 180.395 116.708 179.215C140.023 177.427 162.188 188.929 185.502 187.107C193.916 186.467 202.464 183.532 208.208 177.461C217.5 167.679 217.298 152.366 213.716 139.481C205.978 111.822 185.874 91.7194 160.972 77.7215C149.788 71.4478 138.266 64.8367 129.683 55.2575C121.101 45.6782 115.458 36.5374 101.639 32.8946C92.7522 30.5335 83.3589 34.0414 78.2568 40.079C70.5191 49.1524 74.1008 57.4499 71.3301 68.1085H71.2963Z" fill="#E1EAFD"/>
<path d="M155.36 52.1172H87.4442C84.0315 52.1172 81.1932 54.7818 81.0243 58.1886L75.0099 172.499C74.8072 176.176 77.7468 179.245 81.4298 179.245H149.345C152.758 179.245 155.596 176.58 155.765 173.174L161.78 58.8632C161.982 55.1866 159.043 52.1172 155.36 52.1172Z" fill="#007DC8"/>
<path d="M68.2532 29.7567C64.7054 29.7567 61.7658 32.5225 61.5293 36.0642L53.1496 165.553C52.9807 168.353 55.2107 170.714 58.0152 170.714H136.034C139.581 170.714 142.521 167.948 142.758 164.406L151.002 37.4808C151.272 33.1297 147.826 29.4531 143.433 29.4531L68.287 29.723L68.2532 29.7567Z" fill="#2F9AE4"/>
<path d="M68.4918 146.36H128.332C130.9 146.36 133.028 144.37 133.197 141.84L133.806 133.374C134.008 130.575 131.778 128.18 128.94 128.18H69.0324C66.4645 128.18 64.3358 130.17 64.1668 132.733L63.6262 141.199C63.4572 143.999 65.6873 146.36 68.4918 146.36Z" fill="white"/>
<path d="M69.0621 121.706H130.22C132.788 121.706 134.916 119.716 135.085 117.186L135.626 109.597C135.829 106.797 133.599 104.402 130.76 104.402H69.5351C66.9672 104.402 64.8385 106.392 64.6695 108.956L64.1965 116.545C64.0276 119.345 66.2576 121.706 69.0621 121.706Z" fill="white"/>
<path d="M72.3393 90.7389H133.463C136.031 90.7389 138.126 88.7488 138.329 86.2191L141.1 46.9913C141.302 44.1917 139.072 41.7969 136.234 41.7969H75.0087C72.4407 41.7969 70.312 43.7869 70.1431 46.3167L67.4737 85.5445C67.271 88.3441 69.5011 90.7389 72.3393 90.7389Z" fill="white"/>
<path d="M175.666 36.8061L172.22 38.695C171.51 39.0998 171.51 40.1117 172.22 40.5164L175.666 42.4053C175.835 42.5065 175.97 42.6414 176.072 42.81L177.964 46.2505C178.369 46.9588 179.383 46.9588 179.788 46.2505L181.681 42.81C181.782 42.6414 181.917 42.5065 182.086 42.4053L185.532 40.5164C186.242 40.1117 186.242 39.0998 185.532 38.695L182.086 36.8061C181.917 36.7049 181.782 36.57 181.681 36.4014L179.788 32.9609C179.383 32.2526 178.369 32.2526 177.964 32.9609L176.072 36.4014C175.97 36.57 175.835 36.7049 175.666 36.8061Z" fill="#FFC675"/>
<path d="M40.2431 53.9395L37.4386 55.4573C36.8642 55.7609 36.8642 56.6041 37.4386 56.9414L40.2431 58.4593C40.2431 58.4593 40.5134 58.6616 40.581 58.7966L42.1015 61.5624C42.4056 62.1358 43.2503 62.1358 43.5544 61.5624L45.0749 58.7966C45.0749 58.7966 45.2776 58.5267 45.4128 58.4593L48.1835 56.9414C48.7579 56.6378 48.7579 55.7946 48.1835 55.4573L45.4128 53.9395C45.4128 53.9395 45.1425 53.7371 45.0749 53.6022L43.5544 50.8363C43.2503 50.2629 42.4056 50.2629 42.1015 50.8363L40.581 53.6022C40.581 53.6022 40.3782 53.872 40.2431 53.9395Z" fill="#FFC675"/>
<path d="M192.768 80.7553L190.673 81.9021C190.234 82.1382 190.234 82.7454 190.673 82.9815L192.768 84.1283C192.768 84.1283 192.971 84.2632 193.005 84.3644L194.153 86.4219C194.39 86.8604 194.998 86.8604 195.235 86.4219L196.383 84.3644C196.383 84.3644 196.519 84.162 196.62 84.1283L198.681 82.9815C199.12 82.7454 199.12 82.1382 198.681 81.9021L196.62 80.7553C196.62 80.7553 196.417 80.6204 196.383 80.5192L195.235 78.4617C194.998 78.0232 194.39 78.0232 194.153 78.4617L193.005 80.5192C193.005 80.5192 192.869 80.7216 192.768 80.7553Z" fill="#F2912A"/>
<path d="M22.7399 94.9233L29.8355 90.0999L29.7679 83.8599L37.3366 86.4909L47.4395 80.2171L0 68.8164L22.7399 94.9233Z" fill="#3BC2D7"/>
<path d="M29.8331 90.1002L20.3047 80.5547L29.7656 83.8602L29.8331 90.1002Z" fill="#001D2B"/>
<path d="M23.9207 96.34C23.9207 96.34 23.8193 96.34 23.7855 96.2725L1.04566 70.1656C1.04566 70.1656 0.978082 69.997 1.04566 69.9295C1.11324 69.862 1.2146 69.862 1.28218 69.9295L24.022 96.0364C24.022 96.0364 24.0896 96.2051 24.022 96.2725C24.022 96.2725 23.9545 96.3062 23.9207 96.3062V96.34Z" fill="#001D2B"/>
<path d="M51.7645 130.441C51.7645 130.441 51.7307 130.441 51.6969 130.441C51.5956 130.407 51.528 130.272 51.5618 130.171C52.7444 126.663 53.4878 122.615 53.7243 118.163C54.7041 100.893 38.722 89.2565 29.1598 85.074C29.0585 85.0402 28.9909 84.9053 29.0585 84.8041C29.0922 84.7029 29.2274 84.6355 29.3288 84.7029C39.0261 88.9192 55.1434 100.691 54.1635 118.163C53.8932 122.649 53.1837 126.73 51.9673 130.272C51.9673 130.373 51.8659 130.407 51.7645 130.407V130.441Z" fill="#001D2B"/>
<path fill-rule="evenodd" clip-rule="evenodd" d="M192.794 119.107C193.098 117.96 184.414 113.036 173.298 108.853C162.215 104.569 152.855 102.512 152.517 103.692C152.18 104.873 160.762 109.831 171.878 114.048C183.029 118.196 192.49 120.22 192.794 119.073V119.107Z" fill="#00528C"/>
<path fill-rule="evenodd" clip-rule="evenodd" d="M150.797 106.052L152.52 103.691L192.796 118.937L193.067 121.973L150.797 106.052Z" fill="#00528C"/>
<path fill-rule="evenodd" clip-rule="evenodd" d="M178.571 170.678C178.2 171.892 168.3 169.498 156.474 165.281C144.715 160.964 135.491 156.41 135.862 155.196C136.234 153.982 146.033 156.545 157.791 160.896C169.584 165.146 178.909 169.498 178.538 170.678H178.571Z" fill="#00528C"/>
<path fill-rule="evenodd" clip-rule="evenodd" d="M176.847 172.974C176.475 174.188 166.778 172.569 155.492 168.589C144.24 164.507 135.624 159.65 135.996 158.402C136.368 157.188 145.896 159.077 157.114 163.192C168.366 167.24 177.185 171.759 176.813 172.974H176.847Z" fill="#00528C"/>
<g opacity="0.94">
<path d="M164.99 138.163C154.954 134.419 144.581 139.208 141.709 148.99L139.817 155.399C139.344 157.052 140.29 158.873 141.979 159.48L172.524 170.172C174.214 170.746 175.971 169.903 176.444 168.284L178.269 162.01C181.005 152.431 175.059 141.806 164.99 138.129V138.163Z" fill="white"/>
</g>
<path fill-rule="evenodd" clip-rule="evenodd" d="M135.859 155.199L135.995 158.404L176.744 173.11L178.568 170.681L135.859 155.199Z" fill="#00528C"/>
<path fill-rule="evenodd" clip-rule="evenodd" d="M193.068 121.975C193.372 120.828 184.114 116.41 172.457 112.025C160.8 107.573 151.136 104.874 150.798 106.055C150.46 107.235 159.617 111.856 171.274 116.309C182.965 120.626 192.764 123.156 193.068 121.975Z" fill="#00528C"/>
<g opacity="0.94">
<path d="M164.478 139.986C154.442 136.242 148.631 125.347 151.401 115.734L153.26 109.258C153.665 107.807 155.253 107.099 156.774 107.706L187.319 119.545C188.839 120.119 189.752 121.738 189.38 123.154L187.589 129.496C184.92 138.906 174.547 143.662 164.511 139.986H164.478Z" fill="white"/>
</g>
<path d="M140.626 150.948C140.626 150.948 140.592 150.948 140.558 150.948C140.457 150.948 140.389 150.813 140.423 150.678C142.011 145.281 145.457 141.032 150.188 138.67C154.648 136.444 159.716 136.208 164.48 137.996C164.582 138.03 164.649 138.165 164.616 138.266C164.582 138.367 164.447 138.434 164.345 138.401C159.682 136.647 154.716 136.916 150.391 139.075C145.795 141.369 142.383 145.551 140.862 150.847C140.862 150.948 140.761 150.982 140.659 150.982L140.626 150.948Z" fill="#001D2B"/>
<path d="M171.678 141.334C171.374 141.334 171.171 141.334 171.171 141.334C171.07 141.334 170.969 141.233 170.969 141.132C170.969 141.03 171.07 140.929 171.171 140.929C171.273 140.929 181.477 141.536 186.512 132.767C186.579 132.665 186.681 132.632 186.782 132.699C186.883 132.767 186.917 132.868 186.849 132.969C182.356 140.828 173.807 141.334 171.645 141.334H171.678Z" fill="#001D2B"/>
<path d="M178.469 161.406C178.469 161.406 167.319 162.046 159.885 157.493C152.452 152.872 146.133 150.848 140.727 152.568L139.815 155.604C139.342 157.156 140.153 158.842 141.606 159.382L172.995 170.378C174.448 170.884 176.003 170.04 176.442 168.523L178.503 161.439L178.469 161.406Z" fill="#EFA66B"/>
<path d="M146.539 152.063C146.539 152.063 151.405 152.063 155.29 150.208C159.176 148.352 166.643 138.47 166.508 136.986C166.373 135.501 158.669 137.862 155.155 129.126C155.155 129.126 161.541 125.956 163.636 128.384C165.731 130.813 169.684 132.972 171.948 132.601C174.212 132.23 175.496 138.739 175.496 138.739C175.496 138.739 172.016 140.055 168.84 140.021C165.664 139.987 160.021 156.954 160.021 156.954C160.021 156.954 158.23 156.549 156.304 155.402C154.378 154.255 149.107 152.13 146.539 152.029V152.063Z" fill="#EFA66B"/>
<path d="M169.553 157.695C166.613 159.82 157.727 156.11 157.727 156.11C163.91 160.326 171.614 164.171 177.527 164.779C177.527 164.779 179.554 159.044 178.811 154.828C178.811 154.828 173.607 154.761 169.586 157.695H169.553Z" fill="#F2912A"/>
<path d="M173.398 114.522C173.398 114.522 173.331 114.522 173.297 114.522L156.673 107.978C156.673 107.978 156.47 107.776 156.504 107.607C156.571 107.472 156.707 107.405 156.875 107.438L173.5 113.982C173.5 113.982 173.702 114.184 173.669 114.353C173.635 114.454 173.533 114.522 173.398 114.522Z" fill="white"/>
<path d="M199.694 183.934C200.64 181.303 197.227 177.93 194.457 177.559C191.686 177.188 188.983 178.402 186.314 179.313C183.644 180.224 180.569 180.73 178.204 179.212C176.244 177.964 175.332 175.603 174.15 173.613C170.94 168.249 164.114 164.708 158.201 166.833C154.89 168.013 151.984 170.813 148.504 170.442C145.699 170.105 143.436 167.744 140.631 167.372C137.759 167.001 135.09 168.857 133.13 170.982C131.17 173.107 129.65 175.636 127.386 177.424C126.271 178.301 124.412 179.178 123.027 179.448C122.453 179.549 121.878 179.616 121.371 179.853C120.121 180.493 119.75 182.079 119.547 183.462L199.694 183.934Z" fill="#3BC2D7"/>
</svg>
