<svg width="216" height="216" viewBox="0 0 216 216" fill="none" xmlns="http://www.w3.org/2000/svg">
<path d="M58.4135 66.0098C57.3796 70.0693 55.7943 73.8879 53.0373 77.2938C45.0765 87.0297 31.4293 88.7154 23.5374 98.7609C15.9556 108.394 12.2681 120.95 12.8195 133.129C13.9912 158.724 31.705 183.494 58.7236 185.421C73.8527 186.487 88.4993 180.226 103.628 179.056C126.856 177.233 148.912 188.93 172.14 187.106C180.514 186.453 189.027 183.46 194.747 177.302C204.018 167.325 203.811 151.775 200.227 138.668C192.507 110.527 172.485 90.0571 147.706 75.8489C136.575 69.45 125.099 62.7415 116.552 52.9712C108.005 43.201 102.388 33.9123 88.6027 30.1968C79.7458 27.8231 70.4065 31.3665 65.306 37.4902C57.6208 46.7444 61.1705 55.173 58.4135 66.0098Z" fill="#E1EAFD"/>
<path d="M167.969 52.832H97.8379C94.3227 52.832 91.3934 55.5842 91.2211 59.0933L85.0178 177.094C84.811 180.878 87.8437 184.077 91.6346 184.077H161.766C165.281 184.077 168.21 181.325 168.383 177.816L174.586 59.8157C174.793 56.0315 171.76 52.832 167.969 52.832Z" fill="#007DC8"/>
<path d="M92.5003 173.038C93.3618 170.595 90.1913 167.465 87.6066 167.121C85.0219 166.777 82.5061 167.912 80.0593 168.738C77.6124 169.563 74.7176 170.045 72.512 168.669C70.6854 167.499 69.8584 165.332 68.7211 163.474C65.7228 158.486 59.3817 155.183 53.9022 157.144C50.835 158.245 48.1125 160.859 44.873 160.481C42.2538 160.171 40.1861 157.97 37.5669 157.626C34.9133 157.281 32.3975 159.002 30.6055 160.997C28.8134 162.992 27.366 165.332 25.2638 166.983C24.2299 167.774 22.5068 168.634 21.2317 168.875C20.7147 168.978 20.1633 169.013 19.6809 169.254C18.5091 169.838 18.1645 171.318 17.9922 172.625L92.5003 173.072V173.038Z" fill="#3BC2D7"/>
<path d="M55.451 113.724C55.8645 112.657 54.3481 111.281 53.142 111.109C51.9358 110.937 50.7296 111.453 49.5578 111.832C48.3861 112.21 47.0076 112.417 45.9737 111.797C45.1122 111.281 44.6986 110.318 44.1817 109.527C42.7687 107.325 39.736 105.88 37.1169 106.74C35.6694 107.222 34.3599 108.357 32.8091 108.219C31.5684 108.082 30.569 107.119 29.3283 106.981C28.0532 106.843 26.8815 107.6 26.0199 108.46C25.1584 109.32 24.4691 110.352 23.4697 111.075C22.9872 111.419 22.1601 111.797 21.5398 111.9C21.2986 111.935 21.0229 111.969 20.8161 112.072C20.2647 112.348 20.0924 112.967 20.0234 113.552L55.4854 113.758L55.451 113.724Z" fill="#FFBE83"/>
<path d="M78.055 29.752C74.3675 29.752 71.3348 32.6074 71.128 36.2541L62.4779 169.908C62.3056 172.797 64.5802 175.24 67.5095 175.24H148.048C151.702 175.24 154.769 172.385 154.975 168.738L163.488 37.7334C163.763 33.2267 160.214 29.4424 155.699 29.4768L78.1239 29.752H78.055Z" fill="#2F9AE4"/>
<path d="M78.3298 150.127H140.087C142.74 150.127 144.911 148.098 145.118 145.449L145.739 136.711C145.945 133.821 143.636 131.344 140.707 131.344H78.8812C76.2276 131.344 74.022 133.408 73.8496 136.057L73.2982 144.795C73.1259 147.685 75.4005 150.127 78.3298 150.127Z" fill="white"/>
<path d="M78.9203 124.671H142.056C144.709 124.671 146.88 122.641 147.087 119.992L147.639 112.148C147.845 109.258 145.536 106.781 142.607 106.781H79.4372C76.7836 106.781 74.578 108.845 74.4057 111.494L73.9232 119.338C73.7509 122.228 76.0255 124.671 78.9548 124.671H78.9203Z" fill="white"/>
<path d="M82.2944 92.7091H145.395C148.049 92.7091 150.22 90.6793 150.427 88.0303L153.287 47.5387C153.494 44.6489 151.185 42.1719 148.256 42.1719H85.0514C82.3978 42.1719 80.2267 44.2016 80.0199 46.8506L77.2629 87.3423C77.0561 90.2321 79.3651 92.7091 82.2944 92.7091Z" fill="white"/>
<path d="M168.141 100.07C166.59 100.07 164.936 99.9664 163.282 99.76C148.29 97.9023 141.467 90.609 141.398 90.5402C141.294 90.4025 141.294 90.2305 141.398 90.1273C141.536 90.0241 141.708 90.0241 141.811 90.1273C141.88 90.1961 148.532 97.3174 163.316 99.1408C170.312 100.001 176.446 99.0376 181.03 96.3198C185.165 93.8772 187.819 90.1617 188.508 85.827C188.749 84.3133 188.715 82.9372 188.508 81.7675C187.371 81.5611 186.337 81.2171 185.475 80.8387C182.822 79.669 181.271 78.0521 181.719 76.848C182.064 75.8503 183.098 75.4031 184.407 75.7471C186.096 76.1599 188.301 77.9833 189.06 81.2515C192.747 81.8363 197.365 81.0451 200.019 76.0223C201.673 72.8573 201.432 68.2818 199.295 62.8462C199.226 62.7086 199.295 62.5366 199.467 62.4678C199.605 62.399 199.777 62.4678 199.846 62.6398C202.086 68.3506 202.328 72.9605 200.536 76.332C197.779 81.5611 193.023 82.4556 189.163 81.9051C189.37 83.0748 189.37 84.4165 189.163 85.9646C188.439 90.4714 185.717 94.3588 181.409 96.8702C177.79 99.0032 173.31 100.07 168.175 100.07H168.141ZM183.546 76.2287C182.891 76.2287 182.443 76.504 182.236 77.0544C181.96 77.7769 183.201 79.2218 185.682 80.2882C186.44 80.6323 187.336 80.9075 188.336 81.1139C187.578 78.3617 185.786 76.676 184.2 76.2976C183.959 76.2287 183.752 76.1943 183.546 76.1943V76.2287Z" fill="#001D2B"/>
<path d="M158.974 101.652C158.974 101.652 158.974 101.652 158.939 101.652C148.911 100.482 144.982 96.8358 144.81 96.6638C144.706 96.5605 144.672 96.3541 144.81 96.2509C144.913 96.1477 145.12 96.1133 145.223 96.2509C145.258 96.2853 149.221 99.8976 159.008 101.067C159.181 101.067 159.284 101.239 159.284 101.411C159.284 101.549 159.146 101.687 158.974 101.687V101.652Z" fill="#001D2B"/>
<path d="M179.717 94.3934C179.717 94.3934 179.476 94.3246 179.441 94.2213C179.372 94.0837 179.441 93.9117 179.579 93.8429C183.542 92.1228 185.782 87.7881 185.817 87.7193C185.886 87.5817 186.058 87.5129 186.23 87.5817C186.368 87.6505 186.437 87.8225 186.368 87.9945C186.265 88.1665 184.025 92.57 179.855 94.3934C179.82 94.3934 179.786 94.3934 179.751 94.3934H179.717Z" fill="#001D2B"/>
<path d="M198.088 73.5428C198.088 73.5428 197.951 73.5428 197.882 73.4739C197.744 73.3707 197.744 73.1987 197.847 73.0611C200.122 70.3433 198.088 65.9742 198.054 65.9398C197.985 65.8022 198.054 65.6302 198.192 65.527C198.33 65.4582 198.502 65.527 198.605 65.6646C198.709 65.871 200.811 70.4121 198.295 73.4396C198.226 73.5084 198.157 73.5428 198.054 73.5428H198.088Z" fill="#001D2B"/>
<path d="M199.368 58.4409C199.368 58.4409 203.882 48.9459 194.405 42.375C194.405 42.375 189.546 54.2094 199.368 58.4409Z" fill="#3BC2D7"/>
<path d="M199.197 58.1667C199.197 58.1667 199.094 58.1323 199.059 58.0635L195.406 47.2267C195.406 47.2267 195.406 47.0547 195.51 47.0547C195.579 47.0547 195.682 47.0547 195.682 47.1579L199.335 57.9947C199.335 57.9947 199.335 58.1667 199.232 58.1667C199.232 58.1667 199.232 58.1667 199.197 58.1667Z" fill="white"/>
<path d="M197.199 52.3166C197.199 52.3166 197.13 52.3166 197.095 52.3166L194.2 50.2869C194.2 50.2869 194.131 50.1492 194.166 50.0804C194.2 50.0116 194.304 50.0116 194.373 50.046L197.268 52.0758C197.268 52.0758 197.336 52.2134 197.302 52.2822C197.302 52.3166 197.233 52.351 197.164 52.351L197.199 52.3166Z" fill="white"/>
<path d="M197.952 54.5883C197.952 54.5883 197.952 54.5883 197.917 54.5883C197.848 54.5883 197.779 54.4851 197.814 54.4163L198.641 51.7673C198.641 51.7673 198.744 51.6641 198.813 51.6641C198.882 51.6641 198.951 51.7673 198.917 51.8361L198.09 54.4851C198.09 54.4851 198.021 54.5883 197.952 54.5883Z" fill="white"/>
<path d="M67.4799 46.7106C67.4799 46.7106 64.4472 34.0505 50.1797 35.0482C50.1797 35.0482 54.6598 50.2541 67.4799 46.7106Z" fill="#3BC2D7"/>
<path d="M66.966 46.6089C66.966 46.6089 66.8971 46.6089 66.8626 46.6089L54.9041 38.9716C54.9041 38.9716 54.8007 38.7995 54.8352 38.7307C54.9041 38.6619 55.0075 38.6275 55.0764 38.6619L67.0349 46.2993C67.0349 46.2993 67.1383 46.4713 67.1038 46.5401C67.0694 46.6089 67.0004 46.6089 66.9315 46.6089H66.966Z" fill="white"/>
<path d="M56.1411 42.756C56.1411 42.756 55.9688 42.6872 55.9688 42.5839C55.9688 42.4807 56.0377 42.4119 56.1411 42.3775L60.5178 42.1367C60.5178 42.1367 60.6901 42.2055 60.7246 42.3087C60.7246 42.4119 60.6557 42.4807 60.5523 42.5151L56.1755 42.756H56.1411Z" fill="white"/>
<path d="M62.9989 44.0954C62.9989 44.0954 62.861 44.061 62.8266 43.9922L61.5859 40.7928C61.5859 40.7928 61.5859 40.5864 61.6893 40.552C61.7927 40.5176 61.8961 40.552 61.9306 40.6552L63.1712 43.8546C63.1712 43.8546 63.1712 44.061 63.0678 44.0954C63.0678 44.0954 63.0334 44.0954 62.9989 44.0954Z" fill="white"/>
<path d="M31.7409 67.6289C31.7409 67.6289 18.4728 76.3327 14.4062 85.1742C14.4062 85.1742 26.8128 102.41 38.9781 113.109C38.9781 113.109 41.9763 104.371 51.419 100.208C51.419 100.208 34.429 67.9729 31.7754 67.6289H31.7409Z" fill="#A7D3FC"/>
<path d="M17.097 88.7852C17.097 88.7852 32.1226 108.67 43.9778 110.459C43.9778 110.459 41.3931 115.172 38.9462 113.108C36.4994 111.044 17.0625 88.7852 17.0625 88.7852H17.097Z" fill="#67B9EA"/>
<path d="M28.0909 96.3554C28.0909 96.3554 27.8497 96.321 27.7807 96.2178C27.6084 96.0458 27.6429 95.7705 27.7807 95.6329L39.3257 85.0026C39.3257 85.0026 39.7737 84.865 39.9116 85.0026C40.0839 85.1746 40.0494 85.4498 39.9116 85.5874L28.3666 96.2178C28.3666 96.2178 28.1943 96.321 28.0909 96.321V96.3554Z" fill="white"/>
<path d="M31.0143 99.8286C31.0143 99.8286 30.8075 99.7942 30.7386 99.7254C30.5663 99.5534 30.5663 99.3125 30.7386 99.1405L37.4933 92.26C37.4933 92.26 37.9068 92.088 38.0791 92.26C38.2514 92.4321 38.2514 92.6729 38.0791 92.8449L31.3245 99.7254C31.3245 99.7254 31.1522 99.863 31.0143 99.863V99.8286Z" fill="white"/>
<path d="M165.007 183.426C180.881 183.426 193.749 170.581 193.749 154.735C193.749 138.889 180.881 126.043 165.007 126.043C149.134 126.043 136.266 138.889 136.266 154.735C136.266 170.581 149.134 183.426 165.007 183.426Z" fill="#C5471C"/>
<path d="M164.25 179.262C180.123 179.262 192.991 166.416 192.991 150.571C192.991 134.725 180.123 121.879 164.25 121.879C148.376 121.879 135.508 134.725 135.508 150.571C135.508 166.416 148.376 179.262 164.25 179.262Z" fill="#EC9645"/>
<path d="M164.424 180.433C161.116 180.433 157.738 179.883 154.465 178.679C154.154 178.575 154.016 178.231 154.12 177.922C154.223 177.612 154.568 177.475 154.878 177.578C169.49 182.841 185.653 175.273 190.96 160.721C196.233 146.134 188.651 129.999 174.074 124.701C173.764 124.598 173.626 124.254 173.729 123.944C173.832 123.635 174.177 123.497 174.487 123.6C189.685 129.105 197.612 145.927 192.098 161.099C187.79 173.002 176.486 180.433 164.493 180.433H164.424Z" fill="#001D2B"/>
<path d="M179.38 143.726L167.663 132.236C166.87 131.479 165.768 130.997 164.561 130.963C163.355 130.928 162.218 131.41 161.425 132.201L149.329 143.554C147.571 145.205 147.537 147.889 149.226 149.54C150.914 151.191 153.74 151.226 155.498 149.54L159.943 145.377L159.599 165.193C159.564 167.532 161.494 169.459 163.941 169.459C166.388 169.459 168.387 167.567 168.421 165.228L168.766 145.412L173.074 149.609C173.935 150.434 175.038 150.847 176.175 150.882C177.313 150.916 178.45 150.469 179.311 149.643C181.069 147.992 181.103 145.308 179.415 143.657L179.38 143.726Z" fill="white"/>
</svg>
