<svg width="1366" height="768" viewBox="0 0 1366 768" fill="none" xmlns="http://www.w3.org/2000/svg">
<g clip-path="url(#clip0_3912_74458)">
<rect width="1366" height="768" fill="white"/>
<ellipse cx="1214.28" cy="-11.7387" rx="108.262" ry="212.279" transform="rotate(-90 1214.28 -11.7387)" fill="#BBDEFA" fill-opacity="0.35"/>
<ellipse cx="1377.73" cy="147.471" rx="108.262" ry="212.279" transform="rotate(180 1377.73 147.471)" fill="#BBDEFA" fill-opacity="0.35"/>
<ellipse cx="1266.62" cy="119.053" rx="108.262" ry="212.279" transform="rotate(-140 1266.62 119.053)" fill="#BBDEFA" fill-opacity="0.35"/>
<ellipse cx="151.723" cy="779.682" rx="108.319" ry="212.279" transform="rotate(90 151.723 779.682)" fill="#BBDEFA" fill-opacity="0.35"/>
<ellipse cx="-11.732" cy="620.389" rx="108.262" ry="212.389" fill="#BBDEFA" fill-opacity="0.35"/>
<ellipse cx="108.285" cy="212.344" rx="108.285" ry="212.344" transform="matrix(0.765879 0.642984 -0.642591 0.766209 152.9 416.496)" fill="#BBDEFA" fill-opacity="0.35"/>
<ellipse cx="102.118" cy="345.536" rx="102.118" ry="345.536" transform="matrix(0.270648 0.962678 -0.962539 0.271142 402.184 -177)" fill="#BBDEFA" fill-opacity="0.35"/>
<ellipse cx="102.118" cy="345.536" rx="102.118" ry="345.536" transform="matrix(-0.270648 -0.962678 0.962539 -0.271142 964.276 944.992)" fill="#BBDEFA" fill-opacity="0.35"/>
</g>
<defs>
<clipPath id="clip0_3912_74458">
<rect width="1366" height="768" fill="white"/>
</clipPath>
</defs>
</svg>
