<svg width="962" height="106" viewBox="0 0 962 106" fill="none" xmlns="http://www.w3.org/2000/svg">
<g opacity="0.8">
<path d="M884.363 96.1674C884.363 96.1674 887.055 91.7012 890.889 91.5652C894.723 91.4292 898.758 94.2456 897.48 98.3673C896.202 102.489 892.3 101.664 891.628 100.153C890.957 98.6423 891.696 97.6784 893.039 97.1314M897.749 96.6515C897.749 96.6515 902.861 97.1319 905.553 93.3546C908.245 89.5744 914.7 92.2547 917.93 91.0883C921.158 89.9188 925.53 87.9275 927.415 84.6971C927.415 84.6971 920.554 84.7667 917.797 80.6419C915.04 76.5201 909.189 70.1289 903.334 71.0899C897.48 72.0508 894.59 78.6475 889.88 79.6084C885.17 80.5693 882.549 79.5389 882.549 79.5389C882.549 79.5389 882.011 85.4466 886.721 85.5856C891.43 85.7215 892.909 85.516 895.936 87.7159C898.962 89.9158 903.846 88.7826 905.018 86.066C905.893 84.0384 905.408 80.0405 901.772 79.8834C898.595 79.7474 897.282 83.7302 900.577 84.1442M947.525 86.7918C947.525 86.7918 939.958 85.8641 936.931 82.0506C933.905 78.237 931.683 74.7317 926.033 73.3931C920.383 72.0544 912.614 64.4273 910.898 63.0857C909.183 61.747 901.213 58.4472 895.157 63.9106C889.105 69.374 885.472 72.3626 879.316 72.0514C873.16 71.7432 869.831 72.5681 866.805 75.5567C863.779 78.5453 857.723 80.1952 853.889 76.8954C853.889 76.8954 853.688 84.6252 859.439 85.8611C865.19 87.097 869.024 85.1389 871.849 88.9524C874.674 92.7659 878.609 97.9182 884.36 96.1655C884.36 96.1655 880.526 102.832 885.469 107.089C887.821 109.114 895.154 111.314 900.302 106.987C905.446 102.659 904.742 101.523 913.419 102.04C922.095 102.557 926.234 94.5156 928.453 94.1046C930.672 93.6937 941.268 95.6518 947.522 86.7858L947.525 86.7918Z" stroke="white" stroke-width="2" stroke-miterlimit="10"/>
<path d="M805.873 120.477C805.873 120.477 808.565 116.01 812.399 115.874C816.233 115.738 820.268 118.555 818.99 122.676C817.712 126.798 813.81 125.973 813.138 124.462C812.467 122.951 813.206 121.987 814.55 121.441M819.259 120.961C819.259 120.961 824.371 121.441 827.063 117.664C829.755 113.883 836.21 116.564 839.441 115.397C842.668 114.228 847.041 112.237 848.925 109.006C848.925 109.006 842.065 109.076 839.308 104.951C836.55 100.829 830.699 94.438 824.844 95.399C818.99 96.3599 816.1 102.957 811.39 103.917C806.681 104.878 804.06 103.848 804.06 103.848C804.06 103.848 803.521 109.756 808.231 109.895C812.94 110.031 814.419 109.825 817.446 112.025C820.472 114.225 825.356 113.092 826.528 110.375C827.403 108.347 826.918 104.35 823.283 104.192C820.105 104.056 818.792 108.039 822.087 108.453M869.035 111.101C869.035 111.101 861.468 110.173 858.442 106.36C855.415 102.546 853.194 99.0408 847.543 97.7022C841.893 96.3635 834.124 88.7364 832.409 87.3947C830.693 86.0561 822.723 82.7562 816.668 88.2197C810.615 93.6831 806.982 96.6717 800.826 96.3605C794.67 96.0523 791.342 96.8772 788.315 99.8658C785.289 102.854 779.233 104.504 775.4 101.204C775.4 101.204 775.198 108.934 780.949 110.17C786.7 111.406 790.534 109.448 793.359 113.261C796.184 117.075 800.119 122.227 805.87 120.475C805.87 120.475 802.036 127.141 806.979 131.398C809.331 133.423 816.665 135.623 821.812 131.296C826.956 126.968 826.252 125.832 834.929 126.349C843.606 126.866 847.744 118.825 849.963 118.414C852.182 118.003 862.778 119.961 869.032 111.095L869.035 111.101Z" stroke="white" stroke-width="2" stroke-miterlimit="10"/>
<path d="M821.762 54.4355C821.762 54.4355 824.454 49.9693 828.288 49.8333C832.121 49.6973 836.157 52.5136 834.879 56.6354C833.601 60.7572 829.699 59.9322 829.027 58.4213C828.356 56.9104 829.095 55.9464 830.438 55.3995M835.148 54.9195C835.148 54.9195 840.26 55.4 842.952 51.6227C845.644 47.8424 852.099 50.5228 855.329 49.3564C858.557 48.1869 862.929 46.1955 864.814 42.9652C864.814 42.9652 857.953 43.0347 855.196 38.9099C852.439 34.7882 846.588 28.397 840.733 29.3579C834.879 30.3189 831.988 36.9155 827.279 37.8765C822.569 38.8374 819.948 37.807 819.948 37.807C819.948 37.807 819.41 43.7146 824.119 43.8536C828.829 43.9896 830.308 43.7841 833.334 45.984C836.361 48.1839 841.245 47.0507 842.416 44.3341C843.292 42.3065 842.807 38.3086 839.171 38.1515C835.994 38.0155 834.681 41.9982 837.976 42.4122M884.924 45.0599C884.924 45.0599 877.357 44.1322 874.33 40.3186C871.304 36.5051 869.082 32.9998 863.432 31.6611C857.782 30.3225 850.013 22.6954 848.297 21.3537C846.581 20.0151 838.612 16.7152 832.556 22.1787C826.504 27.6421 822.871 30.6307 816.715 30.3195C810.558 30.0112 807.23 30.8362 804.204 33.8248C801.178 36.8133 795.122 38.4633 791.288 35.1634C791.288 35.1634 791.087 42.8932 796.838 44.1292C802.589 45.3651 806.423 43.4069 809.248 47.2205C812.073 51.034 816.008 56.1862 821.759 54.4336C821.759 54.4336 817.925 61.0997 822.868 65.3574C825.22 67.382 832.553 69.5819 837.701 65.2547C842.845 60.9275 842.141 59.7913 850.818 60.308C859.494 60.8247 863.633 52.7837 865.852 52.3727C868.07 51.9617 878.667 53.9199 884.921 45.0539L884.924 45.0599Z" stroke="white" stroke-width="2" stroke-miterlimit="10"/>
<path d="M751.06 82.9121C751.06 82.9121 753.752 78.4458 757.586 78.3098C761.42 78.1739 765.455 80.9902 764.177 85.112C762.899 89.2337 758.997 88.4088 758.325 86.8979C757.654 85.387 758.393 84.423 759.737 83.8761M764.446 83.3961C764.446 83.3961 769.558 83.8766 772.25 80.0993C774.942 76.319 781.397 78.9993 784.628 77.8329C787.855 76.6635 792.228 74.6721 794.112 71.4418C794.112 71.4418 787.252 71.5113 784.495 67.3865C781.737 63.2648 775.886 56.8736 770.031 57.8345C764.177 58.7954 761.287 65.3921 756.577 66.353C751.868 67.314 749.247 66.2835 749.247 66.2835C749.247 66.2835 748.708 72.1912 753.418 72.3302C758.127 72.4662 759.606 72.2607 762.633 74.4606C765.659 76.6604 770.543 75.5273 771.715 72.8107C772.59 70.783 772.105 66.7852 768.47 66.628C765.292 66.492 763.979 70.4748 767.274 70.8888M814.222 73.5365C814.222 73.5365 806.655 72.6087 803.629 68.7952C800.602 64.9817 798.381 61.4764 792.73 60.1377C787.08 58.799 779.311 51.172 777.596 49.8303C775.88 48.4916 767.91 45.1918 761.855 50.6552C755.802 56.1187 752.169 59.1073 746.013 58.796C739.857 58.4878 736.529 59.3128 733.502 62.3013C730.476 65.2899 724.421 66.9398 720.587 63.64C720.587 63.64 720.385 71.3698 726.136 72.6057C731.887 73.8416 735.721 71.8835 738.546 75.697C741.371 79.5106 745.306 84.6628 751.057 82.9101C751.057 82.9101 747.223 89.5763 752.166 93.834C754.518 95.8586 761.852 98.0585 766.999 93.7313C772.144 89.404 771.439 88.2678 780.116 88.7845C788.793 89.3013 792.931 81.2602 795.15 80.8493C797.369 80.4383 807.965 82.3964 814.219 73.5304L814.222 73.5365Z" stroke="white" stroke-width="2" stroke-miterlimit="10"/>
<path d="M892.743 22.5087C892.743 22.5087 895.435 18.0425 899.269 17.9065C903.102 17.7705 907.138 20.5869 905.86 24.7086C904.582 28.8304 900.68 28.0055 900.008 26.4945C899.337 24.9836 900.076 24.0197 901.419 23.4727M906.129 22.9928C906.129 22.9928 911.241 23.4732 913.933 19.696C916.625 15.9157 923.08 18.596 926.31 17.4296C929.538 16.2601 933.91 14.2688 935.795 11.0384C935.795 11.0384 928.934 11.108 926.177 6.98319C923.42 2.86143 917.569 -3.52975 911.714 -2.56881C905.86 -1.60787 902.969 4.98877 898.26 5.94971C893.55 6.91065 890.929 5.88022 890.929 5.88022C890.929 5.88022 890.391 11.7879 895.1 11.9269C899.81 12.0629 901.289 11.8574 904.315 14.0572C907.342 16.2571 912.226 15.1239 913.397 12.4073C914.273 10.3797 913.788 6.38184 910.152 6.22471C906.975 6.08873 905.661 10.0715 908.957 10.4855M955.905 13.1331C955.905 13.1331 948.337 12.2054 945.311 8.39189C942.285 4.57836 940.063 1.07304 934.413 -0.265623C928.762 -1.60429 920.994 -9.23135 919.278 -10.573C917.562 -11.9117 909.593 -15.2115 903.537 -9.74809C897.485 -4.28464 893.852 -1.29605 887.696 -1.60729C881.539 -1.91552 878.211 -1.09057 875.185 1.89801C872.159 4.88659 866.103 6.53652 862.269 3.23669C862.269 3.23669 862.068 10.9665 867.819 12.2024C873.57 13.4383 877.404 11.4802 880.229 15.2937C883.054 19.1072 886.989 24.2595 892.74 22.5068C892.74 22.5068 888.906 29.1729 893.849 33.4307C896.201 35.4553 903.534 37.6552 908.682 33.3279C913.826 29.0007 913.122 27.8645 921.799 28.3812C930.475 28.898 934.614 20.8569 936.833 20.4459C939.051 20.035 949.648 21.9931 955.902 13.1271L955.905 13.1331Z" stroke="white" stroke-width="2" stroke-miterlimit="10"/>
<path d="M953.201 63.1157C953.201 63.1157 955.893 58.6494 959.727 58.5135C963.561 58.3775 967.596 61.1938 966.318 65.3156C965.04 69.4373 961.138 68.6124 960.467 67.1015C959.795 65.5906 960.535 64.6266 961.878 64.0797M966.587 63.5997C966.587 63.5997 971.699 64.0802 974.391 60.3029C977.083 56.5226 983.538 59.2029 986.769 58.0365C989.996 56.8671 994.369 54.8757 996.253 51.6454C996.253 51.6454 989.393 51.7149 986.636 47.5901C983.879 43.4684 978.027 37.0772 972.173 38.0381C966.318 38.9991 963.428 45.5957 958.718 46.5566C954.009 47.5176 951.388 46.4871 951.388 46.4871C951.388 46.4871 950.849 52.3948 955.559 52.5338C960.268 52.6698 961.748 52.4643 964.774 54.6642C967.8 56.8641 972.684 55.7309 973.856 53.0143C974.732 50.9866 974.246 46.9888 970.611 46.8316C967.433 46.6957 966.12 50.6784 969.416 51.0924M1016.36 53.7401C1016.36 53.7401 1008.8 52.8124 1005.77 48.9988C1002.74 45.1853 1000.52 41.68 994.871 40.3413C989.221 39.0026 981.453 31.3756 979.737 30.0339C978.021 28.6952 970.051 25.3954 963.996 30.8588C957.943 36.3223 954.31 39.3109 948.154 38.9996C941.998 38.6914 938.67 39.5164 935.644 42.5049C932.617 45.4935 926.562 47.1434 922.728 43.8436C922.728 43.8436 922.527 51.5734 928.277 52.8093C934.028 54.0453 937.862 52.0871 940.687 55.9006C943.513 59.7142 947.447 64.8664 953.198 63.1138C953.198 63.1138 949.364 69.7799 954.307 74.0376C956.659 76.0622 963.993 78.2621 969.14 73.9349C974.285 69.6076 973.581 68.4714 982.257 68.9882C990.934 69.5049 995.073 61.4638 997.291 61.0529C999.51 60.6419 1010.11 62.6 1016.36 53.734L1016.36 53.7401Z" stroke="white" stroke-width="2" stroke-miterlimit="10"/>
<path d="M969.266 123.945C969.266 123.945 971.958 119.479 975.792 119.343C979.626 119.207 983.661 122.023 982.383 126.145C981.105 130.266 977.203 129.441 976.532 127.931C975.86 126.42 976.6 125.456 977.943 124.909M982.652 124.429C982.652 124.429 987.764 124.909 990.456 121.132C993.148 117.352 999.603 120.032 1002.83 118.866C1006.06 117.696 1010.43 115.705 1012.32 112.474C1012.32 112.474 1005.46 112.544 1002.7 108.419C999.944 104.297 994.092 97.9063 988.238 98.8672C982.383 99.8282 979.493 106.425 974.783 107.386C970.074 108.347 967.453 107.316 967.453 107.316C967.453 107.316 966.914 113.224 971.624 113.363C976.333 113.499 977.813 113.293 980.839 115.493C983.865 117.693 988.749 116.56 989.921 113.843C990.797 111.816 990.311 107.818 986.676 107.661C983.498 107.525 982.185 111.508 985.48 111.921M1032.43 114.569C1032.43 114.569 1024.86 113.641 1021.83 109.828C1018.81 106.014 1016.59 102.509 1010.94 101.17C1005.29 99.8317 997.518 92.2047 995.802 90.863C994.086 89.5243 986.116 86.2245 980.061 91.6879C974.008 97.1514 970.375 100.14 964.219 99.8287C958.063 99.5205 954.735 100.345 951.708 103.334C948.682 106.323 942.627 107.973 938.793 104.673C938.793 104.673 938.591 112.403 944.342 113.638C950.093 114.874 953.927 112.916 956.752 116.73C959.578 120.543 963.512 125.696 969.263 123.943C969.263 123.943 965.429 130.609 970.372 134.867C972.724 136.891 980.058 139.091 985.205 134.764C990.35 130.437 989.646 129.301 998.322 129.817C1007 130.334 1011.14 122.293 1013.36 121.882C1015.57 121.471 1026.17 123.429 1032.43 114.563L1032.43 114.569Z" stroke="white" stroke-width="2" stroke-miterlimit="10"/>
</g>
</svg>
