<svg width="238" height="139" viewBox="0 0 238 139" fill="none" xmlns="http://www.w3.org/2000/svg">
<g opacity="0.3">
<path d="M254.838 168.606C254.838 168.606 257.53 164.14 261.364 164.004C265.198 163.868 269.233 166.685 267.955 170.806C266.677 174.928 262.775 174.103 262.103 172.592C261.432 171.081 262.171 170.117 263.514 169.57M268.224 169.09C268.224 169.09 273.336 169.571 276.028 165.794C278.72 162.013 285.175 164.694 288.406 163.527C291.633 162.358 296.005 160.366 297.89 157.136C297.89 157.136 291.03 157.206 288.272 153.081C285.515 148.959 279.664 142.568 273.809 143.529C267.955 144.49 265.065 151.086 260.355 152.047C255.645 153.008 253.024 151.978 253.024 151.978C253.024 151.978 252.486 157.886 257.196 158.025C261.905 158.161 263.384 157.955 266.411 160.155C269.437 162.355 274.321 161.222 275.493 158.505C276.368 156.477 275.883 152.479 272.247 152.322C269.07 152.186 267.757 156.169 271.052 156.583M318 159.231C318 159.231 310.433 158.303 307.406 154.49C304.38 150.676 302.158 147.171 296.508 145.832C290.858 144.493 283.089 136.866 281.373 135.525C279.658 134.186 271.688 130.886 265.632 136.35C259.58 141.813 255.947 144.802 249.791 144.49C243.635 144.182 240.307 145.007 237.28 147.996C234.254 150.984 228.198 152.634 224.364 149.334C224.364 149.334 224.163 157.064 229.914 158.3C235.665 159.536 239.499 157.578 242.324 161.391C245.149 165.205 249.084 170.357 254.835 168.604C254.835 168.604 251.001 175.271 255.944 179.528C258.296 181.553 265.629 183.753 270.777 179.426C275.921 175.098 275.217 173.962 283.894 174.479C292.571 174.996 296.709 166.955 298.928 166.544C301.147 166.133 311.743 168.091 317.997 159.225L318 159.231Z" stroke="white" stroke-width="2" stroke-miterlimit="10"/>
<path d="M248.072 109.954C248.072 109.954 250.764 105.488 254.598 105.352C258.432 105.216 262.467 108.032 261.189 112.154C259.911 116.276 256.009 115.451 255.338 113.94C254.666 112.429 255.406 111.465 256.749 110.918M261.458 110.438C261.458 110.438 266.57 110.919 269.262 107.141C271.954 103.361 278.409 106.041 281.64 104.875C284.867 103.705 289.24 101.714 291.124 98.4838C291.124 98.4838 284.264 98.5533 281.507 94.4285C278.75 90.3067 272.898 83.9156 267.044 84.8765C261.189 85.8374 258.299 92.4341 253.589 93.395C248.88 94.356 246.259 93.3255 246.259 93.3255C246.259 93.3255 245.72 99.2332 250.43 99.3722C255.14 99.5082 256.619 99.3027 259.645 101.503C262.671 103.702 267.556 102.569 268.727 99.8526C269.603 97.825 269.118 93.8272 265.482 93.67C262.305 93.534 260.991 97.5168 264.287 97.9308M311.234 100.578C311.234 100.578 303.667 99.6507 300.641 95.8372C297.614 92.0237 295.393 88.5184 289.742 87.1797C284.092 85.841 276.324 78.214 274.608 76.8723C272.892 75.5336 264.922 72.2338 258.867 77.6972C252.814 83.1607 249.181 86.1493 243.025 85.838C236.869 85.5298 233.541 86.3547 230.515 89.3433C227.488 92.3319 221.433 93.9818 217.599 90.682C217.599 90.682 217.398 98.4118 223.149 99.6477C228.899 100.884 232.733 98.9255 235.559 102.739C238.384 106.553 242.318 111.705 248.069 109.952C248.069 109.952 244.235 116.618 249.178 120.876C251.53 122.901 258.864 125.1 264.011 120.773C269.156 116.446 268.452 115.31 277.128 115.827C285.805 116.343 289.944 108.302 292.162 107.891C294.381 107.48 304.978 109.438 311.231 100.572L311.234 100.578Z" stroke="white" stroke-width="2" stroke-miterlimit="10"/>
<path d="M92.3612 109.954C92.3612 109.954 95.0532 105.488 98.8872 105.352C102.721 105.216 106.756 108.032 105.478 112.154C104.2 116.276 100.298 115.451 99.6267 113.94C98.9552 112.429 99.6948 111.465 101.038 110.918M105.748 110.438C105.748 110.438 110.859 110.919 113.551 107.141C116.243 103.361 122.698 106.041 125.929 104.875C129.156 103.705 133.529 101.714 135.413 98.4838C135.413 98.4838 128.553 98.5533 125.796 94.4285C123.039 90.3067 117.187 83.9156 111.333 84.8765C105.478 85.8374 102.588 92.4341 97.8785 93.395C93.1689 94.356 90.5478 93.3255 90.5478 93.3255C90.5478 93.3255 90.0095 99.2332 94.719 99.3722C99.4286 99.5082 100.908 99.3027 103.934 101.503C106.96 103.702 111.845 102.569 113.016 99.8526C113.892 97.825 113.407 93.8272 109.771 93.67C106.594 93.534 105.28 97.5168 108.576 97.9308M155.523 100.578C155.523 100.578 147.956 99.6507 144.93 95.8372C141.903 92.0237 139.682 88.5184 134.031 87.1797C128.381 85.841 120.613 78.214 118.897 76.8723C117.181 75.5336 109.211 72.2338 103.156 77.6972C97.1032 83.1607 93.4705 86.1493 87.3143 85.838C81.1581 85.5298 77.83 86.3547 74.8037 89.3433C71.7774 92.3319 65.7218 93.9818 61.8878 90.682C61.8878 90.682 61.6867 98.4118 67.4376 99.6477C73.1885 100.884 77.0224 98.9255 79.8476 102.739C82.6727 106.553 86.6073 111.705 92.3582 109.952C92.3582 109.952 88.5242 116.618 93.4675 120.876C95.8194 122.901 103.153 125.1 108.3 120.773C113.445 116.446 112.741 115.31 121.417 115.827C130.094 116.343 134.233 108.302 136.451 107.891C138.67 107.48 149.267 109.438 155.52 100.572L155.523 100.578Z" stroke="white" stroke-width="2" stroke-miterlimit="10"/>
<path d="M13.869 134.267C13.869 134.267 16.561 129.8 20.395 129.664C24.2289 129.528 28.264 132.345 26.986 136.466C25.7081 140.588 21.8061 139.763 21.1345 138.252C20.463 136.741 21.2026 135.777 22.5456 135.231M27.2554 134.751C27.2554 134.751 32.3672 135.231 35.0593 131.454C37.7513 127.673 44.2063 130.354 47.4368 129.187C50.6642 128.018 55.0366 126.027 56.921 122.796C56.921 122.796 50.0608 122.866 47.3036 118.741C44.5465 114.619 38.695 108.228 32.8406 109.189C26.9861 110.15 24.0959 116.747 19.3863 117.708C14.6767 118.668 12.0556 117.638 12.0556 117.638C12.0556 117.638 11.5173 123.546 16.2269 123.685C20.9364 123.821 22.4156 123.615 25.4419 125.815C28.4682 128.015 33.3524 126.882 34.5239 124.165C35.3995 122.138 34.9144 118.14 31.2786 117.983C28.1014 117.847 26.788 121.829 30.0835 122.243M77.0312 124.891C77.0312 124.891 69.4639 123.963 66.4376 120.15C63.4113 116.336 61.1896 112.831 55.5393 111.492C49.889 110.154 42.1205 102.526 40.4047 101.185C38.6889 99.8461 30.7193 96.5463 24.6637 102.01C18.6111 107.473 14.9783 110.462 8.82209 110.151C2.6659 109.842 -0.662183 110.667 -3.68851 113.656C-6.71483 116.644 -12.7704 118.294 -16.6043 114.995C-16.6043 114.995 -16.8055 122.724 -11.0546 123.96C-5.3037 125.196 -1.46978 123.238 1.35538 127.052C4.18054 130.865 8.11507 136.017 13.866 134.265C13.866 134.265 10.032 140.931 14.9753 145.188C17.3272 147.213 24.6607 149.413 29.8081 145.086C34.9526 140.759 34.2485 139.622 42.9252 140.139C51.6018 140.656 55.7405 132.615 57.9592 132.204C60.1779 131.793 70.7745 133.751 77.0283 124.885L77.0312 124.891Z" stroke="white" stroke-width="2" stroke-miterlimit="10"/>
<path d="M107.51 168.606C107.51 168.606 110.202 164.14 114.036 164.004C117.87 163.868 121.905 166.685 120.627 170.806C119.349 174.928 115.447 174.103 114.775 172.592C114.104 171.081 114.843 170.117 116.186 169.57M120.896 169.09C120.896 169.09 126.008 169.571 128.7 165.794C131.392 162.013 137.847 164.694 141.077 163.527C144.305 162.358 148.677 160.366 150.562 157.136C150.562 157.136 143.701 157.206 140.944 153.081C138.187 148.959 132.336 142.568 126.481 143.529C120.627 144.49 117.736 151.086 113.027 152.047C108.317 153.008 105.696 151.978 105.696 151.978C105.696 151.978 105.158 157.886 109.867 158.025C114.577 158.161 116.056 157.955 119.083 160.155C122.109 162.355 126.993 161.222 128.165 158.505C129.04 156.477 128.555 152.479 124.919 152.322C121.742 152.186 120.429 156.169 123.724 156.583M170.672 159.231C170.672 159.231 163.105 158.303 160.078 154.49C157.052 150.676 154.83 147.171 149.18 145.832C143.53 144.493 135.761 136.866 134.045 135.525C132.33 134.186 124.36 130.886 118.304 136.35C112.252 141.813 108.619 144.802 102.463 144.49C96.3065 144.182 92.9784 145.007 89.9521 147.996C86.9258 150.984 80.8702 152.634 77.0363 149.334C77.0363 149.334 76.8351 157.064 82.586 158.3C88.3369 159.536 92.1708 157.578 94.996 161.391C97.8212 165.205 101.756 170.357 107.507 168.604C107.507 168.604 103.673 175.271 108.616 179.528C110.968 181.553 118.301 183.753 123.449 179.426C128.593 175.098 127.889 173.962 136.566 174.479C145.242 174.996 149.381 166.955 151.6 166.544C153.819 166.133 164.415 168.091 170.669 159.225L170.672 159.231Z" stroke="white" stroke-width="2" stroke-miterlimit="10"/>
<path d="M29.7596 68.2236C29.7596 68.2236 32.4517 63.7573 36.2856 63.6214C40.1195 63.4854 44.1546 66.3017 42.8767 70.4235C41.5987 74.5452 37.6967 73.7203 37.0252 72.2094C36.3536 70.6985 37.0932 69.7345 38.4363 69.1876M43.146 68.7076C43.146 68.7076 48.2579 69.1881 50.9499 65.4108C53.6419 61.6305 60.0969 64.3109 63.3274 63.1444C66.5549 61.975 70.9272 59.9836 72.8117 56.7533C72.8117 56.7533 65.9514 56.8228 63.1943 52.698C60.4372 48.5763 54.5856 42.1851 48.7312 43.146C42.8767 44.107 39.9865 50.7036 35.2769 51.6646C30.5673 52.6255 27.9463 51.5951 27.9463 51.5951C27.9463 51.5951 27.4079 57.5027 32.1175 57.6417C36.8271 57.7777 38.3062 57.5722 41.3325 59.7721C44.3588 61.972 49.243 60.8388 50.4145 58.1222C51.2902 56.0945 50.805 52.0967 47.1693 51.9396C43.9921 51.8036 42.6786 55.7863 45.9741 56.2003M92.9219 58.848C92.9219 58.848 85.3546 57.9203 82.3282 54.1067C79.3019 50.2932 77.0802 46.7879 71.4299 45.4492C65.7796 44.1106 58.0112 36.4835 56.2954 35.1418C54.5795 33.8031 46.6099 30.5033 40.5543 35.9668C34.5017 41.4302 30.8689 44.4188 24.7127 44.1076C18.5565 43.7993 15.2284 44.6243 12.2021 47.6129C9.17579 50.6014 3.12022 52.2514 -0.713718 48.9515C-0.713718 48.9515 -0.91488 56.6813 4.83602 57.9172C10.5869 59.1532 14.4208 57.195 17.246 61.0086C20.0712 64.8221 24.0057 69.9743 29.7566 68.2217C29.7566 68.2217 25.9227 74.8878 30.866 79.1455C33.2178 81.1701 40.5513 83.37 45.6988 79.0428C50.8432 74.7155 50.1392 73.5793 58.8158 74.0961C67.4925 74.6128 71.6311 66.5717 73.8498 66.1608C76.0685 65.7498 86.6651 67.708 92.9189 58.8419L92.9219 58.848Z" stroke="white" stroke-width="2" stroke-miterlimit="10"/>
<path d="M-40.9435 96.7002C-40.9435 96.7002 -38.2515 92.2339 -34.4175 92.0979C-30.5836 91.962 -26.5485 94.7783 -27.8265 98.9C-29.1044 103.022 -33.0064 102.197 -33.678 100.686C-34.3495 99.175 -33.6099 98.2111 -32.2669 97.6641M-27.5571 97.1842C-27.5571 97.1842 -22.4453 97.6646 -19.7532 93.8874C-17.0612 90.1071 -10.6062 92.7874 -7.37575 91.621C-4.14826 90.4516 0.224103 88.4602 2.10853 85.2298C2.10853 85.2298 -4.75173 85.2994 -7.50885 81.1746C-10.266 77.0528 -16.1175 70.6617 -21.9719 71.6226C-27.8264 72.5835 -30.7166 79.1802 -35.4262 80.1411C-40.1358 81.1021 -42.7569 80.0716 -42.7569 80.0716C-42.7569 80.0716 -43.2952 85.9793 -38.5856 86.1183C-33.8761 86.2543 -32.3969 86.0488 -29.3706 88.2486C-26.3443 90.4485 -21.4601 89.3154 -20.2886 86.5987C-19.413 84.5711 -19.8981 80.5733 -23.5339 80.4161C-26.7111 80.2801 -28.0245 84.2629 -24.729 84.6769M22.2188 87.3245C22.2188 87.3245 14.6514 86.3968 11.6251 82.5833C8.5988 78.7698 6.3771 75.2645 0.726776 73.9258C-4.92355 72.5871 -12.692 64.9601 -14.4078 63.6184C-16.1236 62.2797 -24.0932 58.9799 -30.1488 64.4433C-36.2014 69.9068 -39.8342 72.8954 -45.9904 72.5841C-52.1466 72.2759 -55.4747 73.1008 -58.501 76.0894C-61.5273 79.078 -67.5829 80.7279 -71.4168 77.4281C-71.4168 77.4281 -71.618 85.1579 -65.8671 86.3938C-60.1162 87.6297 -56.2823 85.6716 -53.4571 89.4851C-50.632 93.2987 -46.6974 98.4509 -40.9465 96.6982C-40.9465 96.6982 -44.7805 103.364 -39.8372 107.622C-37.4853 109.647 -30.1518 111.847 -25.0044 107.519C-19.8599 103.192 -20.564 102.056 -11.8873 102.573C-3.21067 103.089 0.927992 95.0483 3.1467 94.6373C5.36542 94.2264 15.962 96.1845 22.2158 87.3185L22.2188 87.3245Z" stroke="white" stroke-width="2" stroke-miterlimit="10"/>
<path d="M-49.5295 169.892C-49.5295 169.892 -46.8374 165.425 -43.0035 165.289C-39.1695 165.153 -35.1344 167.97 -36.4124 172.091C-37.6904 176.213 -41.5924 175.388 -42.2639 173.877C-42.9354 172.366 -42.1959 171.402 -40.8528 170.856M-36.1431 170.376C-36.1431 170.376 -31.0312 170.856 -28.3392 167.079C-25.6471 163.298 -19.1921 165.979 -15.9617 164.812C-12.7342 163.643 -8.36183 161.652 -6.47741 158.421C-6.47741 158.421 -13.3377 158.491 -16.0948 154.366C-18.8519 150.244 -24.7034 143.853 -30.5579 144.814C-36.4123 145.775 -39.3026 152.372 -44.0122 153.333C-48.7217 154.293 -51.3428 153.263 -51.3428 153.263C-51.3428 153.263 -51.8812 159.171 -47.1716 159.31C-42.462 159.446 -40.9829 159.24 -37.9566 161.44C-34.9302 163.64 -30.046 162.507 -28.8746 159.79C-27.9989 157.763 -28.4841 153.765 -32.1198 153.608C-35.297 153.472 -36.6105 157.454 -33.3149 157.868M13.6328 160.516C13.6328 160.516 6.06551 159.588 3.03918 155.775C0.0128588 151.961 -2.20884 148.456 -7.85916 147.117C-13.5095 145.779 -21.2779 138.151 -22.9937 136.81C-24.7095 135.471 -32.6791 132.171 -38.7347 137.635C-44.7874 143.098 -48.4202 146.087 -54.5763 145.776C-60.7325 145.467 -64.0606 146.292 -67.0869 149.281C-70.1133 152.269 -76.1688 153.919 -80.0028 150.62C-80.0028 150.62 -80.2039 158.349 -74.453 159.585C-68.7021 160.821 -64.8682 158.863 -62.0431 162.677C-59.2179 166.49 -55.2834 171.642 -49.5325 169.89C-49.5325 169.89 -53.3664 176.556 -48.4231 180.813C-46.0713 182.838 -38.7377 185.038 -33.5903 180.711C-28.4458 176.384 -29.1499 175.247 -20.4732 175.764C-11.7966 176.281 -7.65795 168.24 -5.43923 167.829C-3.22052 167.418 7.37604 169.376 13.6299 160.51L13.6328 160.516Z" stroke="white" stroke-width="2" stroke-miterlimit="10"/>
<path d="M100.744 36.2978C100.744 36.2978 103.436 31.8316 107.27 31.6956C111.104 31.5596 115.139 34.3759 113.861 38.4977C112.583 42.6195 108.681 41.7945 108.01 40.2836C107.338 38.7727 108.078 37.8087 109.421 37.2618M114.13 36.7818C114.13 36.7818 119.242 37.2623 121.934 33.485C124.626 29.7047 131.081 32.3851 134.312 31.2187C137.539 30.0492 141.912 28.0578 143.796 24.8275C143.796 24.8275 136.936 24.897 134.179 20.7722C131.422 16.6505 125.57 10.2593 119.716 11.2203C113.861 12.1812 110.971 18.7778 106.261 19.7388C101.552 20.6997 98.9306 19.6693 98.9306 19.6693C98.9306 19.6693 98.3923 25.5769 103.102 25.7159C107.811 25.8519 109.291 25.6464 112.317 27.8463C115.343 30.0462 120.227 28.913 121.399 26.1964C122.275 24.1688 121.789 20.1709 118.154 20.0138C114.976 19.8778 113.663 23.8605 116.958 24.2745M163.906 26.9222C163.906 26.9222 156.339 25.9945 153.313 22.181C150.286 18.3674 148.065 14.8621 142.414 13.5234C136.764 12.1848 128.996 4.55771 127.28 3.21602C125.564 1.87736 117.594 -1.42247 111.539 4.04097C105.486 9.50442 101.853 12.493 95.6971 12.1818C89.5409 11.8735 86.2128 12.6985 83.1865 15.6871C80.1602 18.6756 74.1046 20.3256 70.2707 17.0258C70.2707 17.0258 70.0695 24.7555 75.8204 25.9915C81.5713 27.2274 85.4052 25.2692 88.2304 29.0828C91.0555 32.8963 94.9901 38.0485 100.741 36.2959C100.741 36.2959 96.907 42.962 101.85 47.2197C104.202 49.2443 111.536 51.4442 116.683 47.117C121.828 42.7898 121.124 41.6536 129.8 42.1703C138.477 42.687 142.615 34.646 144.834 34.235C147.053 33.824 157.649 35.7822 163.903 26.9162L163.906 26.9222Z" stroke="white" stroke-width="2" stroke-miterlimit="10"/>
<path d="M161.197 76.9072C161.197 76.9072 163.889 72.4409 167.723 72.305C171.557 72.169 175.592 74.9853 174.314 79.1071C173.036 83.2288 169.134 82.4039 168.463 80.893C167.791 79.3821 168.531 78.4181 169.874 77.8712M174.583 77.3912C174.583 77.3912 179.695 77.8717 182.387 74.0944C185.079 70.3141 191.534 72.9945 194.765 71.828C197.992 70.6586 202.365 68.6672 204.249 65.4369C204.249 65.4369 197.389 65.5064 194.632 61.3816C191.875 57.2599 186.023 50.8687 180.169 51.8296C174.314 52.7906 171.424 59.3872 166.714 60.3481C162.005 61.3091 159.384 60.2787 159.384 60.2787C159.384 60.2787 158.845 66.1863 163.555 66.3253C168.265 66.4613 169.744 66.2558 172.77 68.4557C175.796 70.6556 180.681 69.5224 181.852 66.8058C182.728 64.7781 182.243 60.7803 178.607 60.6231C175.43 60.4872 174.116 64.4699 177.412 64.8839M224.359 67.5316C224.359 67.5316 216.792 66.6039 213.766 62.7903C210.739 58.9768 208.518 55.4715 202.867 54.1328C197.217 52.7941 189.449 45.1671 187.733 43.8254C186.017 42.4867 178.047 39.1869 171.992 44.6503C165.939 50.1138 162.306 53.1024 156.15 52.7911C149.994 52.4829 146.666 53.3079 143.64 56.2964C140.613 59.285 134.558 60.935 130.724 57.6351C130.724 57.6351 130.523 65.3649 136.274 66.6008C142.024 67.8368 145.858 65.8786 148.684 69.6922C151.509 73.5057 155.443 78.6579 161.194 76.9053C161.194 76.9053 157.36 83.5714 162.303 87.8291C164.655 89.8537 171.989 92.0536 177.136 87.7264C182.281 83.3991 181.577 82.2629 190.253 82.7797C198.93 83.2964 203.069 75.2553 205.287 74.8444C207.506 74.4334 218.103 76.3915 224.356 67.5255L224.359 67.5316Z" stroke="white" stroke-width="2" stroke-miterlimit="10"/>
<path d="M177.267 137.735C177.267 137.735 179.959 133.269 183.793 133.133C187.627 132.997 191.662 135.813 190.384 139.935C189.106 144.057 185.205 143.232 184.533 141.721C183.861 140.21 184.601 139.246 185.944 138.699M190.654 138.219C190.654 138.219 195.766 138.7 198.458 134.923C201.15 131.142 207.605 133.823 210.835 132.656C214.063 131.487 218.435 129.495 220.319 126.265C220.319 126.265 213.459 126.335 210.702 122.21C207.945 118.088 202.093 111.697 196.239 112.658C190.385 113.619 187.494 120.215 182.785 121.176C178.075 122.137 175.454 121.107 175.454 121.107C175.454 121.107 174.916 127.014 179.625 127.153C184.335 127.289 185.814 127.084 188.84 129.284C191.867 131.484 196.751 130.351 197.922 127.634C198.798 125.606 198.313 121.608 194.677 121.451C191.5 121.315 190.186 125.298 193.482 125.712M240.43 128.36C240.43 128.36 232.862 127.432 229.836 123.618C226.81 119.805 224.588 116.3 218.938 114.961C213.287 113.622 205.519 105.995 203.803 104.654C202.087 103.315 194.118 100.015 188.062 105.478C182.009 110.942 178.377 113.931 172.221 113.619C166.064 113.311 162.736 114.136 159.71 117.125C156.684 120.113 150.628 121.763 146.794 118.463C146.794 118.463 146.593 126.193 152.344 127.429C158.095 128.665 161.929 126.707 164.754 130.52C167.579 134.334 171.514 139.486 177.264 137.733C177.264 137.733 173.43 144.399 178.374 148.657C180.726 150.682 188.059 152.882 193.207 148.555C198.351 144.227 197.647 143.091 206.324 143.608C215 144.125 219.139 136.083 221.358 135.672C223.576 135.262 234.173 137.22 240.427 128.354L240.43 128.36Z" stroke="white" stroke-width="2" stroke-miterlimit="10"/>
</g>
</svg>
