<svg width="114" height="114" viewBox="0 0 114 114" fill="none" xmlns="http://www.w3.org/2000/svg">
<path d="M34.798 12.1152C33.8987 12.1152 33.0221 12.4319 32.4027 13.05C31.7821 13.6656 31.4654 14.5485 31.4654 15.4453V98.6045C31.4654 99.5013 31.7821 100.378 32.4027 100.999C33.0221 101.619 33.8987 101.936 34.798 101.936H79.2833C80.1801 101.936 81.0643 101.619 81.6773 100.999C82.2993 100.378 82.6147 99.5013 82.6147 98.6045V15.4453C82.6147 14.5485 82.298 13.6656 81.6773 13.05C81.0643 12.4306 80.1801 12.1152 79.2833 12.1152H72.4155C71.8746 12.1152 71.3933 12.4382 71.1893 12.9386L70.1659 15.4453C69.8353 16.2648 69.5731 16.6664 69.1551 16.9374C68.7472 17.2148 68.0214 17.4454 66.5964 17.4454H47.4824C46.0587 17.4454 45.3329 17.2136 44.9237 16.9374C44.5083 16.6676 44.2435 16.2661 43.9142 15.4453L42.892 12.9386C42.6919 12.4433 42.2105 12.1152 41.6773 12.1152H34.798Z" fill="#9EDCFF"/>
<path d="M34.5976 9.27228H79.4806C82.7208 9.27228 85.2782 11.8436 85.2782 15.0774V98.9738C85.2782 102.206 82.7195 104.78 79.4806 104.78H34.5976C31.36 104.78 28.7988 102.206 28.7988 98.9738V15.0774C28.8 11.8449 31.36 9.27228 34.5976 9.27228ZM34.5976 6.64648C29.9489 6.64648 26.1666 10.4288 26.1666 15.0774V98.9738C26.1666 103.625 29.9489 107.405 34.5976 107.405H79.4806C84.1318 107.405 87.9179 103.625 87.9179 98.9738V15.0774C87.9179 10.4288 84.1318 6.64648 79.4806 6.64648H34.5976Z" fill="#7E94B5"/>
<path d="M52.7943 12.1162C52.0609 12.1162 51.4757 12.7014 51.4757 13.4348C51.4757 14.1669 52.0609 14.7547 52.7943 14.7547H61.951C62.6768 14.7547 63.2709 14.1669 63.2709 13.4348C63.2709 12.7014 62.6768 12.1162 61.951 12.1162H52.7943Z" fill="#B5B5C3"/>
</svg>
