<svg width="217" height="216" viewBox="0 0 217 216" fill="none" xmlns="http://www.w3.org/2000/svg">
<path d="M57.7963 66.0098C56.7624 70.0693 55.1771 73.8879 52.4201 77.2938C44.4593 87.0297 30.8121 88.7154 22.9202 98.7609C15.3384 108.394 11.6509 120.95 12.2023 133.129C13.3741 158.724 31.0878 183.494 58.1065 185.421C73.2355 186.487 87.8821 180.226 103.011 179.056C126.239 177.233 148.295 188.93 171.523 187.106C179.897 186.453 188.409 183.46 194.13 177.302C203.401 167.325 203.194 151.775 199.61 138.668C191.89 110.527 171.867 90.0571 147.089 75.8489C135.957 69.45 124.481 62.7415 115.935 52.9712C107.388 43.201 101.771 33.9123 87.9855 30.1968C79.1286 27.8231 69.7893 31.3665 64.6888 37.4902C57.0037 46.7444 60.5533 55.173 57.7963 66.0098Z" fill="#E1EAFD"/>
<path d="M20.78 46.9844C20.78 46.9844 7.5119 55.6882 3.44531 64.5296C3.44531 64.5296 15.8518 81.7652 28.0171 92.4644C28.0171 92.4644 31.0154 83.7262 40.4581 79.5635C40.4581 79.5635 23.4681 47.3284 20.8144 46.9844H20.78Z" fill="#A7D3FC"/>
<path d="M6.13603 68.1406C6.13603 68.1406 21.1617 88.0252 33.0168 89.8142C33.0168 89.8142 30.4321 94.5273 27.9853 92.4631C25.5384 90.399 6.10156 68.1406 6.10156 68.1406H6.13603Z" fill="#67B9EA"/>
<path d="M17.13 75.7108C17.13 75.7108 16.8887 75.6764 16.8198 75.5732C16.6475 75.4012 16.6819 75.126 16.8198 74.9884L28.3648 64.358C28.3648 64.358 28.8128 64.2204 28.9506 64.358C29.1229 64.53 29.0885 64.8053 28.9506 64.9429L17.4057 75.5732C17.4057 75.5732 17.2333 75.6764 17.13 75.6764V75.7108Z" fill="white"/>
<path d="M20.0534 79.184C20.0534 79.184 19.8466 79.1496 19.7777 79.0808C19.6054 78.9088 19.6054 78.668 19.7777 78.496L26.5323 71.6155C26.5323 71.6155 26.9459 71.4435 27.1182 71.6155C27.2905 71.7875 27.2905 72.0283 27.1182 72.2004L20.3635 79.0808C20.3635 79.0808 20.1912 79.2184 20.0534 79.2184V79.184Z" fill="white"/>
<path d="M213.946 173.038C214.807 170.595 211.637 167.465 209.052 167.121C206.467 166.777 203.951 167.912 201.505 168.738C199.058 169.563 196.163 170.045 193.957 168.669C192.131 167.499 191.304 165.332 190.166 163.474C187.168 158.486 180.827 155.183 175.347 157.144C172.28 158.245 169.558 160.859 166.318 160.481C163.699 160.171 161.631 157.97 159.012 157.626C156.359 157.281 153.843 159.002 152.051 160.997C150.259 162.992 148.811 165.332 146.709 166.983C145.675 167.774 143.952 168.634 142.677 168.875C142.16 168.978 141.609 169.013 141.126 169.254C139.954 169.838 139.61 171.318 139.438 172.625L213.946 173.072V173.038Z" fill="#A7D3FC"/>
<path d="M44.49 93.0832C44.9036 92.0167 43.3872 90.6406 42.181 90.4686C40.9748 90.2966 39.7686 90.8126 38.5969 91.191C37.4252 91.5695 36.0467 91.7759 35.0128 91.1566C34.1512 90.6406 33.7377 89.6773 33.2208 88.8861C31.8078 86.6843 28.7751 85.2394 26.1559 86.0995C24.7085 86.5811 23.3989 87.7164 21.8481 87.5788C20.6075 87.4412 19.608 86.4779 18.3674 86.3403C17.0923 86.2027 15.9206 86.9595 15.059 87.8196C14.1974 88.6797 13.5082 89.7117 12.5088 90.4342C12.0263 90.7782 11.1992 91.1566 10.5789 91.2598C10.3376 91.2942 10.0619 91.3287 9.85514 91.4319C9.30374 91.7071 9.13143 92.3263 9.0625 92.9112L44.5245 93.1176L44.49 93.0832Z" fill="#FFBE83"/>
<path d="M131.097 40.3102L133.165 39.175C133.578 38.9341 133.578 38.3149 133.165 38.0741L131.097 36.9388C131.097 36.9388 130.89 36.8012 130.856 36.698L129.719 34.6338C129.477 34.221 128.857 34.221 128.616 34.6338L127.479 36.698C127.479 36.698 127.341 36.9044 127.237 36.9388L125.17 38.0741C124.756 38.3149 124.756 38.9341 125.17 39.175L127.237 40.3102C127.237 40.3102 127.41 40.4479 127.479 40.5511L128.616 42.6152C128.857 43.028 129.477 43.028 129.719 42.6152L130.856 40.5511C130.856 40.5511 130.994 40.379 131.097 40.3102Z" fill="#FFC675"/>
<path d="M40.7374 146.613L43.2877 145.099C43.8046 144.789 43.8046 143.964 43.2877 143.654L40.7374 142.14C40.7374 142.14 40.4962 141.968 40.4273 141.796L39.0488 139.044C38.7731 138.459 38.0149 138.459 37.7047 139.044L36.3262 141.796C36.3262 141.796 36.1539 142.037 36.0161 142.14L33.4658 143.654C32.9489 143.964 32.9489 144.789 33.4658 145.099L36.0161 146.613C36.0161 146.613 36.2573 146.785 36.3262 146.957L37.7047 149.709C37.9804 150.294 38.7386 150.294 39.0488 149.709L40.4273 146.957C40.4273 146.957 40.5996 146.716 40.7374 146.613Z" fill="#FFC675"/>
<path d="M200.745 108.429L203.295 106.915C203.812 106.606 203.812 105.78 203.295 105.47L200.745 103.957C200.745 103.957 200.504 103.785 200.435 103.613L199.057 100.861C198.781 100.276 198.023 100.276 197.713 100.861L196.334 103.613C196.334 103.613 196.162 103.854 196.024 103.957L193.474 105.47C192.957 105.78 192.957 106.606 193.474 106.915L196.024 108.429C196.024 108.429 196.265 108.601 196.334 108.773L197.713 111.525C197.988 112.11 198.746 112.11 199.057 111.525L200.435 108.773C200.435 108.773 200.607 108.532 200.745 108.429Z" fill="#3BC2D7"/>
<path d="M102.525 170.526C130.351 170.526 152.909 148.008 152.909 120.23C152.909 92.452 130.351 69.9336 102.525 69.9336C74.6984 69.9336 52.1406 92.452 52.1406 120.23C52.1406 148.008 74.6984 170.526 102.525 170.526Z" fill="#005C89"/>
<path d="M101.15 163.198C128.976 163.198 151.534 140.68 151.534 112.902C151.534 85.1239 128.976 62.6055 101.15 62.6055C73.3234 62.6055 50.7656 85.1239 50.7656 112.902C50.7656 140.68 73.3234 163.198 101.15 163.198Z" fill="#3BC2D7"/>
<path d="M101.463 165.261C95.6733 165.261 89.7802 164.263 84.0249 162.199C83.4735 161.992 83.1978 161.407 83.4046 160.891C83.6114 160.375 84.1972 160.066 84.7142 160.272C110.32 169.526 138.683 156.247 147.919 130.686C157.189 105.125 143.886 76.8119 118.281 67.5576C117.729 67.3512 117.454 66.7663 117.66 66.2503C117.867 65.7343 118.453 65.4246 118.97 65.6311C145.644 75.2637 159.463 104.747 149.814 131.374C142.232 152.256 122.451 165.226 101.394 165.226L101.463 165.261Z" fill="#001D2B"/>
<path d="M130.2 95.5294C126.754 92.0892 121.171 92.0892 117.725 95.5294L96.5994 116.618L87.2945 107.329C83.8483 103.889 78.2653 103.889 74.8191 107.329C71.3728 110.77 71.3728 116.343 74.8191 119.783L90.3617 135.299C93.8079 138.739 99.3909 138.739 102.837 135.299L130.166 108.017C133.612 104.577 133.612 99.004 130.166 95.5638L130.2 95.5294Z" fill="white"/>
<path d="M161.351 73.819C160.559 73.819 159.766 73.7846 158.973 73.6814C152.977 72.9933 149.083 70.0347 148.945 69.8971C148.738 69.7595 148.704 69.4499 148.876 69.2778C149.014 69.0714 149.324 69.037 149.496 69.209C149.531 69.209 153.356 72.1676 159.111 72.8213C166.728 73.6814 174.344 70.1379 181.064 62.5694C181.236 62.3974 181.512 62.363 181.684 62.535C181.857 62.707 181.891 62.9822 181.719 63.1542C177.273 68.1426 170.243 73.819 161.317 73.819H161.351Z" fill="#001D2B"/>
<path d="M160.735 70.0386C157.013 70.0386 154.738 68.5249 154.6 68.4217C154.393 68.2841 154.359 68.0089 154.497 67.8025C154.635 67.5961 154.91 67.5273 155.117 67.6993C155.186 67.7337 160.218 71.0363 167.524 67.4585C167.765 67.3552 168.006 67.4585 168.144 67.6649C168.247 67.8713 168.144 68.1465 167.937 68.2841C165.18 69.6258 162.768 70.073 160.735 70.073V70.0386Z" fill="#001D2B"/>
<path d="M182.993 61.3323C182.993 61.3323 195.882 59.5434 196.261 45.3008C196.261 45.3008 180.718 48.2938 182.993 61.3323Z" fill="#3BC2D7"/>
<path d="M183.272 60.9896C183.272 60.9896 183.203 60.9896 183.169 60.9896C183.1 60.9208 183.1 60.852 183.169 60.7832L191.888 49.6712C191.888 49.6712 192.026 49.6024 192.095 49.6712C192.164 49.74 192.164 49.8088 192.095 49.8776L183.376 60.9896C183.376 60.9896 183.307 61.0584 183.238 61.0584L183.272 60.9896Z" fill="white"/>
<path d="M187.986 55.003C187.986 55.003 187.814 54.9341 187.848 54.8309L188.021 50.4618C188.021 50.4618 188.09 50.3242 188.193 50.3242C188.296 50.3242 188.365 50.393 188.331 50.4962L188.158 54.8653C188.158 54.8653 188.09 55.003 187.986 55.003Z" fill="white"/>
<path d="M186.2 57.3088C186.2 57.3088 186.063 57.2744 186.063 57.2056C186.063 57.1368 186.062 57.0336 186.166 56.9992L189.44 56.0703C189.44 56.0703 189.612 56.0703 189.647 56.1735C189.647 56.2423 189.647 56.3455 189.543 56.3799L186.269 57.3088C186.269 57.3088 186.269 57.3088 186.235 57.3088H186.2Z" fill="white"/>
</svg>
